<svg width="200" height="200" viewBox="0 0 200 200" fill="none" xmlns="http://www.w3.org/2000/svg">
<g clip-path="url(#clip0_1_30)">
<path d="M75 0H75.3333C75.3333 0.0118519 75.3333 0.0237037 75.3333 0.0355556C75.3333 0.0622222 75.3467 0.077037 75.3733 0.08C116.92 7.85482 158.462 15.6415 200 23.44V200H75V0ZM125.004 33.4933C125.004 33.4509 124.988 33.4102 124.958 33.3802C124.928 33.3502 124.887 33.3333 124.844 33.3333H100.16C100.118 33.3333 100.077 33.3502 100.047 33.3802C100.017 33.4102 100 33.4509 100 33.4933V49.84C100 49.8824 100.017 49.9231 100.047 49.9531C100.077 49.9831 100.118 50 100.16 50H124.844C124.887 50 124.928 49.9831 124.958 49.9531C124.988 49.9231 125.004 49.8824 125.004 49.84V33.4933ZM125.004 66.84C125.004 66.794 124.986 66.7499 124.954 66.7174C124.921 66.6849 124.877 66.6667 124.831 66.6667H100.173C100.127 66.6667 100.083 66.6849 100.051 66.7174C100.018 66.7499 100 66.794 100 66.84V83.16C100 83.206 100.018 83.2501 100.051 83.2826C100.083 83.3151 100.127 83.3333 100.173 83.3333H124.831C124.877 83.3333 124.921 83.3151 124.954 83.2826C124.986 83.2501 125.004 83.206 125.004 83.16V66.84ZM175 66.8844C175 66.8255 174.977 66.769 174.935 66.7273C174.893 66.6856 174.837 66.6622 174.778 66.6622H150.227C150.168 66.6622 150.111 66.6856 150.07 66.7273C150.028 66.769 150.004 66.8255 150.004 66.8844V83.1067C150.004 83.1656 150.028 83.2221 150.07 83.2638C150.111 83.3055 150.168 83.3289 150.227 83.3289H174.778C174.837 83.3289 174.893 83.3055 174.935 83.2638C174.977 83.2221 175 83.1656 175 83.1067V66.8844ZM125.004 100.16C125.004 100.118 124.988 100.077 124.958 100.047C124.928 100.017 124.887 100 124.844 100H100.16C100.118 100 100.077 100.017 100.047 100.047C100.017 100.077 100 100.118 100 100.16V116.507C100 116.549 100.017 116.59 100.047 116.62C100.077 116.65 100.118 116.667 100.16 116.667H124.844C124.887 116.667 124.928 116.65 124.958 116.62C124.988 116.59 125.004 116.549 125.004 116.507V100.16ZM175 100.178C175 100.131 174.981 100.085 174.948 100.052C174.915 100.019 174.869 100 174.822 100H150.182C150.135 100 150.09 100.019 150.057 100.052C150.023 100.085 150.004 100.131 150.004 100.178V116.489C150.004 116.536 150.023 116.581 150.057 116.615C150.09 116.648 150.135 116.667 150.182 116.667H174.822C174.869 116.667 174.915 116.648 174.948 116.615C174.981 116.581 175 116.536 175 116.489V100.178ZM125.004 133.507C125.004 133.461 124.986 133.417 124.954 133.384C124.921 133.352 124.877 133.333 124.831 133.333H100.173C100.127 133.333 100.083 133.352 100.051 133.384C100.018 133.417 100 133.461 100 133.507V149.827C100 149.873 100.018 149.917 100.051 149.949C100.083 149.982 100.127 150 100.173 150H124.831C124.877 150 124.921 149.982 124.954 149.949C124.986 149.917 125.004 149.873 125.004 149.827V133.507ZM175 133.533C175 133.48 174.979 133.429 174.941 133.392C174.904 133.354 174.853 133.333 174.8 133.333H150.204C150.151 133.333 150.101 133.354 150.063 133.392C150.026 133.429 150.004 133.48 150.004 133.533V149.8C150.004 149.853 150.026 149.904 150.063 149.941C150.101 149.979 150.151 150 150.204 150H174.8C174.853 150 174.904 149.979 174.941 149.941C174.979 149.904 175 149.853 175 149.8V133.533ZM125.004 166.827C125.004 166.784 124.988 166.744 124.958 166.714C124.928 166.684 124.887 166.667 124.844 166.667H100.16C100.118 166.667 100.077 166.684 100.047 166.714C100.017 166.744 100 166.784 100 166.827V183.173C100 183.216 100.017 183.256 100.047 183.286C100.077 183.316 100.118 183.333 100.16 183.333H124.844C124.887 183.333 124.928 183.316 124.958 183.286C124.988 183.256 125.004 183.216 125.004 183.173V166.827ZM175 166.831C175 166.787 174.983 166.746 174.952 166.715C174.921 166.684 174.879 166.667 174.836 166.667H150.169C150.125 166.667 150.083 166.684 150.053 166.715C150.022 166.746 150.004 166.787 150.004 166.831V183.169C150.004 183.213 150.022 183.254 150.053 183.285C150.083 183.316 150.125 183.333 150.169 183.333H174.836C174.879 183.333 174.921 183.316 174.952 183.285C174.983 183.254 175 183.213 175 183.169V166.831Z" fill="#CB8A58"/>
<path d="M58.3289 200H0V48.9334L58.1556 38.0134C58.1757 38.0094 58.1966 38.01 58.2165 38.0151C58.2364 38.0202 58.255 38.0297 58.2707 38.0429C58.2865 38.0561 58.2991 38.0727 58.3076 38.0914C58.3162 38.1102 58.3204 38.1306 58.32 38.1511L58.3289 200ZM41.6667 66.8667C41.6667 66.8136 41.6456 66.7628 41.6081 66.7253C41.5706 66.6878 41.5197 66.6667 41.4667 66.6667H16.8711C16.8181 66.6667 16.7672 66.6878 16.7297 66.7253C16.6922 66.7628 16.6711 66.8136 16.6711 66.8667V83.1334C16.6711 83.1864 16.6922 83.2373 16.7297 83.2748C16.7672 83.3123 16.8181 83.3334 16.8711 83.3334H41.4667C41.5197 83.3334 41.5706 83.3123 41.6081 83.2748C41.6456 83.2373 41.6667 83.1864 41.6667 83.1334V66.8667ZM41.6667 100.178C41.6667 100.131 41.6479 100.085 41.6146 100.052C41.5813 100.019 41.536 100 41.4889 100H16.8489C16.8017 100 16.7565 100.019 16.7232 100.052C16.6898 100.085 16.6711 100.131 16.6711 100.178V116.489C16.6711 116.536 16.6898 116.581 16.7232 116.615C16.7565 116.648 16.8017 116.667 16.8489 116.667H41.4889C41.536 116.667 41.5813 116.648 41.6146 116.615C41.6479 116.581 41.6667 116.536 41.6667 116.489V100.178ZM41.6667 133.511C41.6667 133.464 41.6479 133.419 41.6146 133.385C41.5813 133.352 41.536 133.333 41.4889 133.333H16.8489C16.8017 133.333 16.7565 133.352 16.7232 133.385C16.6898 133.419 16.6711 133.464 16.6711 133.511V149.822C16.6711 149.869 16.6898 149.915 16.7232 149.948C16.7565 149.981 16.8017 150 16.8489 150H41.4889C41.536 150 41.5813 149.981 41.6146 149.948C41.6479 149.915 41.6667 149.869 41.6667 149.822V133.511ZM41.6622 166.809C41.6622 166.771 41.6472 166.735 41.6206 166.708C41.5939 166.682 41.5577 166.667 41.52 166.667H16.8089C16.7712 166.667 16.735 166.682 16.7083 166.708C16.6817 166.735 16.6667 166.771 16.6667 166.809V183.191C16.6667 183.229 16.6817 183.265 16.7083 183.292C16.735 183.318 16.7712 183.333 16.8089 183.333H41.52C41.5577 183.333 41.5939 183.318 41.6206 183.292C41.6472 183.265 41.6622 183.229 41.6622 183.191V166.809Z" fill="#CB8A58"/>
</g>
<defs>
<clipPath id="clip0_1_30">
<rect width="200" height="200" fill="white"/>
</clipPath>
</defs>
</svg>
