<svg width="200" height="200" viewBox="0 0 200 200" fill="none" xmlns="http://www.w3.org/2000/svg">
<g clip-path="url(#clip0_1_48)">
<path d="M0 0H33.3546C30.8526 0.972112 29.7928 3.28287 31.1155 5.60159C44.6879 29.336 60.7703 50.4807 79.3626 69.0359C107.564 97.1793 140.345 118.895 177.705 134.183C178.268 134.412 178.26 134.622 177.681 134.813C175.663 135.471 173.758 136.165 171.968 136.892C167.299 138.805 169.88 145.291 174.534 143.594C179.495 141.788 184.592 139.912 189.825 137.968C190.275 137.802 190.687 137.548 191.039 137.221C191.39 136.895 191.674 136.502 191.874 136.066C192.074 135.629 192.186 135.157 192.203 134.677C192.221 134.197 192.144 133.718 191.976 133.267C190.074 128.157 188.22 123.15 186.414 118.247C184.653 113.45 178 115.482 179.649 120.51C180.388 122.757 181.246 125.084 182.223 127.49C182.414 127.963 182.274 128.106 181.801 127.92C169.131 122.969 156.887 117.084 145.068 110.263C99.2935 83.846 63.3094 47.6096 37.1155 1.55378C36.7968 1.00133 36.1116 0.4834 35.0598 0H200V199.203H190.367C193.469 198.571 195.02 196.579 195.02 193.227C195.025 183.07 195.025 172.914 195.02 162.757C195.02 160.866 194.754 159.448 194.223 158.502C193.363 156.961 191.734 156.189 189.339 156.183C182.922 156.173 176.255 156.149 169.339 156.112C165.657 156.096 162.829 157.857 162.829 161.849C162.823 172.616 162.823 182.94 162.829 192.821C162.834 196.364 164.367 198.491 167.426 199.203H150.9C153.713 198.685 155.721 196.47 155.721 193.641C155.721 176.398 155.734 158.794 155.761 140.829C155.769 137.155 153.641 134.661 149.61 134.661C143.256 134.667 136.563 134.653 129.53 134.622C127.179 134.606 125.06 135.347 123.984 137.506C123.548 138.382 123.331 139.971 123.331 142.271C123.309 159.094 123.304 175.944 123.315 192.821C123.32 196.353 124.871 198.481 127.968 199.203H111.458C114.576 198.571 116.135 196.712 116.135 193.626C116.135 169.371 116.135 145.116 116.135 120.861C116.135 118.438 115.92 116.781 115.49 115.888C114.688 114.236 113.333 113.368 111.426 113.283C107.426 113.097 100.157 113.06 89.6175 113.171C87.2537 113.193 85.6069 114.024 84.6773 115.665C84.1461 116.606 83.8805 118.292 83.8805 120.725C83.8645 144.762 83.8672 168.797 83.8884 192.829C83.8884 196.319 85.3732 198.444 88.3426 199.203H72.0319C74.9323 198.59 76.7331 196.39 76.7331 193.482C76.7331 158.401 76.7278 121.618 76.7171 83.1315C76.7171 79.5777 74.502 77.3147 70.741 77.2908C63.0066 77.2483 56.0372 77.2669 49.8327 77.3466C46.5418 77.3865 44.3984 79.6892 44.3984 82.7729C44.3878 119.995 44.3772 156.9 44.3665 193.49C44.3665 196.295 46.0239 198.446 48.7888 199.203H32.5896C35.6707 198.454 37.2112 196.263 37.2112 192.629C37.2377 141.766 37.1766 90.9031 37.0279 40.0398C37.0173 36.178 35.2324 34.2497 31.6733 34.255C25.3997 34.2603 19.2032 34.2603 13.0837 34.255C8.12749 34.247 5.00398 34.7888 5.00398 40.4382C5.02523 93.1819 5.0332 143.979 5.02789 192.829C5.02789 196.409 6.52855 198.534 9.52988 199.203H0V0Z" fill="white"/>
<path d="M33.3546 0H35.0598C36.1116 0.4834 36.7969 1.00133 37.1156 1.55378C63.3095 47.6096 99.2935 83.846 145.068 110.263C156.887 117.084 169.132 122.969 181.801 127.92C182.274 128.106 182.414 127.963 182.223 127.49C181.246 125.084 180.388 122.757 179.649 120.51C178 115.482 184.653 113.45 186.414 118.247C188.22 123.15 190.074 128.157 191.976 133.267C192.144 133.718 192.221 134.197 192.203 134.677C192.186 135.157 192.074 135.629 191.874 136.066C191.674 136.502 191.39 136.895 191.039 137.221C190.687 137.548 190.275 137.802 189.825 137.968C184.592 139.912 179.495 141.788 174.534 143.594C169.881 145.291 167.299 138.805 171.968 136.892C173.758 136.165 175.663 135.471 177.681 134.813C178.26 134.622 178.268 134.412 177.705 134.183C140.345 118.895 107.564 97.1793 79.3626 69.0359C60.7703 50.4807 44.688 29.336 31.1156 5.60159C29.7929 3.28287 30.8526 0.972112 33.3546 0Z" fill="#CB8A58"/>
<path d="M32.5897 199.203H9.52992C6.5286 198.534 5.02793 196.409 5.02793 192.829C5.03324 143.979 5.02528 93.1819 5.00403 40.4382C5.00403 34.7888 8.12753 34.247 13.0837 34.255C19.2032 34.2603 25.3998 34.2603 31.6734 34.255C35.2324 34.2497 37.0173 36.1779 37.0279 40.0398C37.1767 90.903 37.2378 141.766 37.2112 192.629C37.2112 196.263 35.6707 198.454 32.5897 199.203ZM30.0239 41.7689C30.0239 41.6802 29.9887 41.595 29.9259 41.5323C29.8632 41.4695 29.778 41.4342 29.6893 41.4342H12.4781C12.3894 41.4342 12.3043 41.4695 12.2415 41.5323C12.1787 41.595 12.1435 41.6802 12.1435 41.7689V191.697C12.1435 191.786 12.1787 191.871 12.2415 191.934C12.3043 191.997 12.3894 192.032 12.4781 192.032H29.6893C29.778 192.032 29.8632 191.997 29.9259 191.934C29.9887 191.871 30.0239 191.786 30.0239 191.697V41.7689Z" fill="#CB8A58"/>
<path d="M72.0319 199.203H48.7889C46.0239 198.446 44.3666 196.295 44.3666 193.49C44.3772 156.9 44.3878 119.995 44.3985 82.7729C44.3985 79.6893 46.5419 77.3865 49.8327 77.3466C56.0372 77.2669 63.0067 77.2484 70.7411 77.2908C74.502 77.3148 76.7172 79.5777 76.7172 83.1315C76.7278 121.618 76.7331 158.401 76.7331 193.482C76.7331 196.39 74.9323 198.59 72.0319 199.203ZM69.522 84.7171C69.522 84.6495 69.4951 84.5847 69.4473 84.5368C69.3995 84.489 69.3346 84.4622 69.267 84.4622H51.8327C51.7651 84.4622 51.7002 84.489 51.6524 84.5368C51.6046 84.5847 51.5777 84.6495 51.5777 84.7171V191.777C51.5777 191.845 51.6046 191.909 51.6524 191.957C51.7002 192.005 51.7651 192.032 51.8327 192.032H69.267C69.3346 192.032 69.3995 192.005 69.4473 191.957C69.4951 191.909 69.522 191.845 69.522 191.777V84.7171Z" fill="#CB8A58"/>
<path d="M111.458 199.203H88.3426C85.3732 198.444 83.8885 196.319 83.8885 192.829C83.8672 168.797 83.8645 144.762 83.8805 120.725C83.8805 118.292 84.1461 116.606 84.6773 115.665C85.6069 114.024 87.2537 113.193 89.6175 113.171C100.157 113.06 107.426 113.097 111.426 113.283C113.333 113.368 114.688 114.236 115.49 115.888C115.92 116.781 116.135 118.438 116.135 120.861C116.135 145.116 116.135 169.371 116.135 193.626C116.135 196.712 114.576 198.571 111.458 199.203ZM108.964 120.645C108.964 120.561 108.931 120.48 108.871 120.42C108.811 120.36 108.73 120.327 108.645 120.327H91.4024C91.3179 120.327 91.2368 120.36 91.177 120.42C91.1173 120.48 91.0837 120.561 91.0837 120.645V191.705C91.0837 191.79 91.1173 191.871 91.177 191.931C91.2368 191.99 91.3179 192.024 91.4024 192.024H108.645C108.73 192.024 108.811 191.99 108.871 191.931C108.931 191.871 108.964 191.79 108.964 191.705V120.645Z" fill="#CB8A58"/>
<path d="M150.9 199.203H127.968C124.871 198.481 123.32 196.353 123.315 192.821C123.304 175.944 123.309 159.094 123.331 142.271C123.331 139.971 123.549 138.382 123.984 137.506C125.06 135.347 127.179 134.606 129.53 134.622C136.563 134.653 143.256 134.667 149.61 134.661C153.641 134.661 155.769 137.155 155.761 140.829C155.734 158.794 155.721 176.398 155.721 193.641C155.721 196.47 153.713 198.685 150.9 199.203ZM148.446 142.135C148.446 142.096 148.438 142.056 148.423 142.02C148.408 141.983 148.386 141.949 148.358 141.921C148.329 141.893 148.296 141.871 148.259 141.856C148.223 141.841 148.183 141.833 148.143 141.833H130.821C130.74 141.833 130.663 141.865 130.607 141.921C130.55 141.978 130.518 142.055 130.518 142.135V191.729C130.518 191.809 130.55 191.886 130.607 191.943C130.663 192 130.74 192.032 130.821 192.032H148.143C148.183 192.032 148.223 192.024 148.259 192.009C148.296 191.994 148.329 191.971 148.358 191.943C148.386 191.915 148.408 191.882 148.423 191.845C148.438 191.808 148.446 191.769 148.446 191.729V142.135Z" fill="#CB8A58"/>
<path d="M190.367 199.203H167.426C164.367 198.491 162.834 196.364 162.829 192.821C162.823 182.94 162.823 172.616 162.829 161.849C162.829 157.857 165.657 156.096 169.339 156.112C176.255 156.149 182.922 156.173 189.339 156.183C191.734 156.189 193.363 156.961 194.223 158.502C194.754 159.448 195.02 160.866 195.02 162.757C195.025 172.914 195.025 183.07 195.02 193.227C195.02 196.579 193.469 198.571 190.367 199.203ZM187.945 163.673C187.945 163.633 187.937 163.594 187.922 163.557C187.907 163.52 187.885 163.487 187.856 163.459C187.828 163.431 187.795 163.408 187.758 163.393C187.722 163.378 187.682 163.37 187.643 163.37L170.4 163.34C170.36 163.339 170.32 163.347 170.284 163.362C170.247 163.378 170.213 163.4 170.185 163.428C170.157 163.456 170.135 163.489 170.119 163.526C170.104 163.563 170.096 163.602 170.096 163.642L170.047 191.705C170.047 191.745 170.055 191.785 170.07 191.821C170.085 191.858 170.107 191.892 170.136 191.92C170.164 191.948 170.197 191.97 170.234 191.986C170.27 192.001 170.31 192.009 170.349 192.009L187.593 192.039C187.632 192.039 187.672 192.031 187.708 192.016C187.745 192.001 187.779 191.979 187.807 191.951C187.835 191.923 187.857 191.889 187.873 191.852C187.888 191.816 187.896 191.776 187.896 191.737L187.945 163.673Z" fill="#CB8A58"/>
</g>
<defs>
<clipPath id="clip0_1_48">
<rect width="200" height="199.203" fill="white"/>
</clipPath>
</defs>
</svg>
