<svg width="200" height="200" viewBox="0 0 200 200" fill="none" xmlns="http://www.w3.org/2000/svg">
<g clip-path="url(#clip0_1_3)">
<path d="M0 0H200V200H0V0ZM132.416 182.456C132.496 187.264 130.544 191.176 125.224 191.176C88.4347 191.192 51.3413 191.197 13.944 191.192C9.712 191.192 6.368 189.016 6.376 184.376C6.44 122.739 6.41067 67.1653 6.288 17.656C6.272 12.84 8.232 9.12 13.816 9.192C23.3573 9.32 32.3307 9.35733 40.736 9.304C61.5787 9.176 83.3253 9.168 105.976 9.28C111.309 9.30667 117.035 9.26133 123.152 9.144C125.712 9.10133 127.579 9.40267 128.752 10.048C131.664 11.656 132.576 14.832 132.24 18.024C132.165 18.7173 132.477 19.048 133.176 19.016L137.816 18.824C138.307 18.8027 138.555 18.5467 138.56 18.056C138.592 12.096 136.712 7.048 131.216 4.296C129.616 3.496 127.283 3.096 124.216 3.096C92.776 3.072 62.136 3.248 26.2 3.104C21.1333 3.088 16.464 3.12533 12.192 3.216C5.264 3.376 0.144 9.24 0.152 15.944C0.221333 69.544 0.202667 125.093 0.096 182.592C0.0906667 185.584 0.477333 187.952 1.256 189.696C3.128 193.92 7.432 197.264 12.2 197.264C48.0773 197.248 86.0507 197.24 126.12 197.24C131.024 197.24 135.272 194.136 137.272 189.808C138.099 188.027 138.509 185.811 138.504 183.16C138.477 172.712 138.483 162.707 138.52 153.144C138.522 153.055 138.489 152.969 138.428 152.904C138.367 152.838 138.282 152.798 138.192 152.792L132.6 152.448C132.56 152.445 132.52 152.45 132.482 152.463C132.445 152.476 132.41 152.496 132.381 152.523C132.351 152.55 132.328 152.583 132.312 152.62C132.296 152.657 132.288 152.696 132.288 152.736C132.208 162.667 132.251 172.573 132.416 182.456ZM138.224 85.216L138.232 24.624C138.232 24.2507 138.045 24.0693 137.672 24.08C121.096 24.4587 106.981 30.2827 95.328 41.552C72.376 63.76 70.304 100.272 90.648 124.896C99.3573 135.435 110.139 142.328 122.992 145.576C162.216 155.48 198.968 126.328 199.848 86.264C199.85 86.2049 199.84 86.146 199.819 86.0908C199.797 86.0355 199.764 85.9851 199.723 85.9426C199.681 85.9 199.631 85.8662 199.575 85.843C199.52 85.8199 199.46 85.808 199.4 85.808H138.816C138.421 85.808 138.224 85.6107 138.224 85.216ZM171.16 35.672C171.16 32.7292 169.991 29.9068 167.91 27.8259C165.829 25.745 163.007 24.576 160.064 24.576C157.121 24.576 154.299 25.745 152.218 27.8259C150.137 29.9068 148.968 32.7292 148.968 35.672C148.968 38.6148 150.137 41.4372 152.218 43.5181C154.299 45.599 157.121 46.768 160.064 46.768C163.007 46.768 165.829 45.599 167.91 43.5181C169.991 41.4372 171.16 38.6148 171.16 35.672ZM198.935 29.797C199.01 29.7219 199.052 29.6201 199.052 29.514C199.052 29.4079 199.009 29.3062 198.934 29.2314L194.65 24.9622C194.575 24.8874 194.473 24.8454 194.367 24.8456C194.261 24.8457 194.159 24.8881 194.084 24.9632L149.417 69.787C149.342 69.8621 149.3 69.9639 149.3 70.07C149.3 70.1761 149.343 70.2778 149.418 70.3526L153.702 74.6218C153.777 74.6966 153.879 74.7386 153.985 74.7384C154.091 74.7383 154.193 74.6959 154.268 74.6208L198.935 29.797ZM21.88 31.8L97.976 31.808C98.3493 31.808 98.6933 31.7093 99.008 31.512L107.824 26.048C108.224 25.7973 108.187 25.672 107.712 25.672L15.44 25.72C15.3763 25.72 15.3153 25.7453 15.2703 25.7903C15.2253 25.8353 15.2 25.8963 15.2 25.96L15.184 54.408C15.184 54.4653 15.2076 54.5202 15.2496 54.5607C15.2916 54.6012 15.3486 54.624 15.408 54.624L78.776 54.64C78.8569 54.6398 78.9362 54.6191 79.0062 54.5798C79.0763 54.5406 79.1347 54.4842 79.176 54.416L82.616 48.56C82.6291 48.5406 82.6362 48.518 82.6366 48.4946C82.637 48.4713 82.6307 48.4481 82.6184 48.4275C82.6061 48.407 82.5881 48.3898 82.5666 48.3779C82.545 48.366 82.5206 48.3598 82.496 48.36L21.776 48.4C21.7203 48.4 21.6652 48.389 21.6137 48.3677C21.5623 48.3464 21.5156 48.3152 21.4762 48.2758C21.4368 48.2364 21.4056 48.1897 21.3843 48.1383C21.363 48.0868 21.352 48.0317 21.352 47.976L21.368 32.32C21.368 31.9733 21.5387 31.8 21.88 31.8ZM199.384 63.952C199.384 61.0113 198.216 58.191 196.136 56.1116C194.057 54.0322 191.237 52.864 188.296 52.864C185.355 52.864 182.535 54.0322 180.456 56.1116C178.376 58.191 177.208 61.0113 177.208 63.952C177.208 66.8927 178.376 69.713 180.456 71.7924C182.535 73.8718 185.355 75.04 188.296 75.04C191.237 75.04 194.057 73.8718 196.136 71.7924C198.216 69.713 199.384 66.8927 199.384 63.952ZM21.696 69.92C21.604 69.92 21.5157 69.884 21.4499 69.8197C21.3841 69.7555 21.3461 69.668 21.344 69.576L21.304 68.288C21.3029 68.2411 21.3113 68.1945 21.3285 68.1508C21.3457 68.1072 21.3714 68.0675 21.4042 68.0339C21.437 68.0004 21.4762 67.9737 21.5194 67.9555C21.5627 67.9373 21.6091 67.928 21.656 67.928L73.528 67.944C73.6021 67.9445 73.6746 67.9215 73.7349 67.8784C73.7952 67.8353 73.8404 67.7743 73.864 67.704L75.712 62.144C75.7298 62.0909 75.7347 62.0343 75.7263 61.9789C75.7178 61.9235 75.6963 61.8709 75.6634 61.8255C75.6305 61.7802 75.5873 61.7433 75.5373 61.718C75.4873 61.6926 75.432 61.6796 75.376 61.68L15.552 61.72C15.4586 61.72 15.3691 61.7571 15.3031 61.8231C15.2371 61.8891 15.2 61.9786 15.2 62.072L15.184 75.816C15.184 75.8622 15.1931 75.908 15.2108 75.9507C15.2285 75.9934 15.2544 76.0322 15.2871 76.0649C15.3198 76.0976 15.3586 76.1235 15.4013 76.1412C15.444 76.1589 15.4898 76.168 15.536 76.168L71.76 76.16C71.8419 76.1595 71.921 76.1305 71.9838 76.0779C72.0466 76.0253 72.0891 75.9525 72.104 75.872L73.16 70.336C73.1694 70.2854 73.1675 70.2333 73.1546 70.1835C73.1416 70.1337 73.1179 70.0873 73.0851 70.0477C73.0523 70.008 73.0112 69.976 72.9647 69.954C72.9182 69.9319 72.8675 69.9203 72.816 69.92H21.696ZM62.904 92.256C62.9029 92.2053 62.9121 92.1549 62.931 92.1078C62.9499 92.0607 62.9782 92.0179 63.014 91.982C63.0499 91.9462 63.0927 91.9179 63.1398 91.899C63.1869 91.8801 63.2373 91.8709 63.288 91.872L71.248 91.96C71.3001 91.9612 71.3519 91.9516 71.4002 91.9317C71.4484 91.9118 71.4919 91.8821 71.528 91.8445C71.5641 91.8069 71.592 91.7622 71.6099 91.7132C71.6278 91.6642 71.6353 91.612 71.632 91.56L71.384 86.048C71.3799 85.9511 71.3384 85.8595 71.2684 85.7924C71.1983 85.7253 71.105 85.6879 71.008 85.688L57.168 85.752C57.0683 85.752 56.9726 85.7916 56.9021 85.8621C56.8316 85.9326 56.792 86.0283 56.792 86.128L56.76 110.544C56.76 110.644 56.7996 110.739 56.8701 110.81C56.9406 110.88 57.0363 110.92 57.136 110.92L75.768 110.96C75.8289 110.961 75.8892 110.947 75.9436 110.92C75.9981 110.892 76.045 110.852 76.0804 110.803C76.1159 110.753 76.1387 110.696 76.147 110.635C76.1553 110.575 76.1488 110.513 76.128 110.456L74.2 105.032C74.1738 104.96 74.126 104.897 74.063 104.853C74.0001 104.808 73.925 104.784 73.848 104.784L63.328 104.8C63.2283 104.8 63.1326 104.76 63.0621 104.69C62.9916 104.619 62.952 104.524 62.952 104.424L62.904 92.256ZM50.6 86.136C50.6 86.0469 50.5646 85.9614 50.5016 85.8984C50.4386 85.8354 50.3531 85.8 50.264 85.8H25.736C25.6469 85.8 25.5614 85.8354 25.4984 85.8984C25.4354 85.9614 25.4 86.0469 25.4 86.136V110.568C25.4 110.657 25.4354 110.743 25.4984 110.806C25.5614 110.869 25.6469 110.904 25.736 110.904H50.264C50.3531 110.904 50.4386 110.869 50.5016 110.806C50.5646 110.743 50.6 110.657 50.6 110.568V86.136ZM50.6 118.016C50.6 117.976 50.5921 117.937 50.5769 117.9C50.5616 117.863 50.5392 117.829 50.511 117.801C50.4827 117.773 50.4492 117.75 50.4123 117.735C50.3755 117.72 50.3359 117.712 50.296 117.712H25.704C25.6641 117.712 25.6245 117.72 25.5877 117.735C25.5508 117.75 25.5173 117.773 25.489 117.801C25.4608 117.829 25.4384 117.863 25.4231 117.9C25.4079 117.937 25.4 117.976 25.4 118.016V142.576C25.4 142.657 25.432 142.734 25.489 142.791C25.5461 142.848 25.6234 142.88 25.704 142.88H50.296C50.3766 142.88 50.454 142.848 50.511 142.791C50.568 142.734 50.6 142.657 50.6 142.576V118.016ZM79.008 117.696L57.024 117.736C56.9625 117.736 56.9035 117.761 56.8599 117.806C56.8164 117.851 56.792 117.912 56.792 117.976L56.76 142.448C56.76 142.575 56.8114 142.697 56.9029 142.787C56.9944 142.877 57.1186 142.928 57.248 142.928H81.592C81.6424 142.928 81.6924 142.918 81.739 142.899C81.7855 142.879 81.8279 142.851 81.8635 142.816C81.8992 142.78 81.9275 142.738 81.9468 142.691C81.9661 142.644 81.976 142.594 81.976 142.544C81.928 136.464 81.9333 130.056 81.992 123.32C82.008 121.352 80.664 119.768 79.728 118.12C79.6548 117.991 79.5497 117.884 79.4232 117.81C79.2968 117.736 79.1535 117.696 79.008 117.696ZM88.08 142.392C88.08 142.528 88.1339 142.658 88.23 142.754C88.326 142.85 88.4562 142.904 88.592 142.904L102.016 142.92C102.944 142.92 103.016 142.672 102.232 142.176C97.2827 139.045 92.7707 135.232 88.696 130.736C88.3227 130.325 88.1333 130.4 88.128 130.96L88.08 142.392ZM50.6 149.768C50.6 149.726 50.5917 149.684 50.5756 149.646C50.5596 149.607 50.536 149.571 50.5063 149.542C50.4766 149.512 50.4413 149.488 50.4025 149.472C50.3636 149.456 50.322 149.448 50.28 149.448H25.72C25.678 149.448 25.6364 149.456 25.5975 149.472C25.5587 149.488 25.5234 149.512 25.4937 149.542C25.464 149.571 25.4404 149.607 25.4244 149.646C25.4083 149.684 25.4 149.726 25.4 149.768V174.44C25.4 174.525 25.4337 174.606 25.4937 174.666C25.5537 174.726 25.6351 174.76 25.72 174.76H50.28C50.3649 174.76 50.4463 174.726 50.5063 174.666C50.5663 174.606 50.6 174.525 50.6 174.44V149.768ZM81.952 149.848C81.952 149.74 81.909 149.636 81.8325 149.559C81.756 149.483 81.6522 149.44 81.544 149.44H57.176C57.0678 149.44 56.964 149.483 56.8875 149.559C56.811 149.636 56.768 149.74 56.768 149.848V174.36C56.768 174.414 56.7786 174.467 56.7991 174.516C56.8196 174.566 56.8496 174.611 56.8875 174.649C56.9254 174.686 56.9704 174.716 57.0199 174.737C57.0694 174.757 57.1224 174.768 57.176 174.768H81.544C81.5976 174.768 81.6506 174.757 81.7001 174.737C81.7496 174.716 81.7946 174.686 81.8325 174.649C81.8704 174.611 81.9004 174.566 81.9209 174.516C81.9414 174.467 81.952 174.414 81.952 174.36V149.848ZM113.248 149.808C113.248 149.76 113.238 149.712 113.22 149.667C113.201 149.623 113.174 149.582 113.14 149.548C113.106 149.514 113.065 149.487 113.021 149.468C112.976 149.45 112.928 149.44 112.88 149.44H88.512C88.4144 149.44 88.3208 149.479 88.2518 149.548C88.1828 149.617 88.144 149.71 88.144 149.808V174.384C88.144 174.482 88.1828 174.575 88.2518 174.644C88.3208 174.713 88.4144 174.752 88.512 174.752H112.88C112.928 174.752 112.976 174.742 113.021 174.724C113.065 174.705 113.106 174.678 113.14 174.644C113.174 174.61 113.201 174.569 113.22 174.525C113.238 174.48 113.248 174.432 113.248 174.384V149.808ZM118.064 184.768C123.064 182.624 126.12 178.056 126.144 172.616C126.181 165.907 126.187 159.056 126.16 152.064C126.16 151.962 126.125 151.864 126.061 151.785C125.997 151.706 125.908 151.652 125.808 151.632L120.344 150.424C120.299 150.415 120.252 150.415 120.207 150.427C120.162 150.438 120.12 150.459 120.084 150.489C120.049 150.519 120.019 150.557 119.999 150.599C119.979 150.642 119.968 150.689 119.968 150.736C120 157.867 120.013 165.035 120.008 172.24C120 176.672 117.072 179.528 112.648 179.52C101.64 179.504 91.2187 179.493 81.384 179.488C81.2906 179.488 81.2011 179.525 81.1351 179.591C81.0691 179.657 81.032 179.747 81.032 179.84V185.512C81.0267 185.683 81.112 185.768 81.288 185.768C90.248 185.741 99.5893 185.755 109.312 185.808C113.461 185.829 116.379 185.483 118.064 184.768Z" fill="white"/>
<path d="M132.416 182.456C132.251 172.573 132.208 162.667 132.288 152.736C132.288 152.696 132.296 152.657 132.312 152.62C132.328 152.583 132.351 152.55 132.381 152.523C132.41 152.496 132.445 152.476 132.482 152.463C132.52 152.45 132.56 152.445 132.6 152.448L138.192 152.792C138.282 152.798 138.367 152.838 138.428 152.904C138.489 152.969 138.522 153.055 138.52 153.144C138.483 162.707 138.477 172.712 138.504 183.16C138.509 185.811 138.099 188.027 137.272 189.808C135.272 194.136 131.024 197.24 126.12 197.24C86.0507 197.24 48.0773 197.248 12.2 197.264C7.432 197.264 3.128 193.92 1.256 189.696C0.477335 187.952 0.0906684 185.584 0.0960017 182.592C0.202668 125.093 0.221335 69.544 0.152002 15.944C0.144002 9.23998 5.264 3.37598 12.192 3.21598C16.464 3.12531 21.1333 3.08798 26.2 3.10398C62.136 3.24798 92.776 3.07198 124.216 3.09598C127.283 3.09598 129.616 3.49598 131.216 4.29598C136.712 7.04798 138.592 12.096 138.56 18.056C138.555 18.5466 138.307 18.8026 137.816 18.824L133.176 19.016C132.477 19.048 132.165 18.7173 132.24 18.024C132.576 14.832 131.664 11.656 128.752 10.048C127.579 9.40264 125.712 9.10131 123.152 9.14398C117.035 9.26131 111.309 9.30664 105.976 9.27998C83.3253 9.16798 61.5787 9.17598 40.736 9.30398C32.3307 9.35731 23.3573 9.31998 13.816 9.19198C8.232 9.11998 6.272 12.84 6.288 17.656C6.41067 67.1653 6.44 122.739 6.376 184.376C6.368 189.016 9.712 191.192 13.944 191.192C51.3413 191.197 88.4347 191.192 125.224 191.176C130.544 191.176 132.496 187.264 132.416 182.456Z" fill="#CB8A58"/>
<path d="M138.816 85.808H199.4C199.46 85.808 199.52 85.8199 199.575 85.843C199.631 85.8661 199.681 85.9 199.723 85.9426C199.764 85.9851 199.797 86.0355 199.819 86.0907C199.84 86.146 199.85 86.2049 199.848 86.264C198.968 126.328 162.216 155.48 122.992 145.576C110.139 142.328 99.3573 135.435 90.6479 124.896C70.3039 100.272 72.3759 63.76 95.3279 41.552C106.981 30.2826 121.096 24.4586 137.672 24.08C138.045 24.0693 138.232 24.2506 138.232 24.624L138.224 85.216C138.224 85.6106 138.421 85.808 138.816 85.808ZM132.448 92.008C132.213 92.008 132.096 91.888 132.096 91.648L132.064 31.2C132.062 31.1226 132.045 31.0465 132.012 30.9766C131.979 30.9068 131.932 30.8448 131.873 30.7948C131.815 30.7448 131.747 30.708 131.674 30.6869C131.6 30.6657 131.523 30.6606 131.448 30.672C102.064 34.76 80.1439 60.52 83.0719 90.712C85.9919 120.832 111.92 143.52 142.48 141.112C154.203 140.184 164.547 135.992 173.512 128.536C184.557 119.341 191.16 107.376 193.32 92.64C193.384 92.2186 193.203 92.008 192.776 92.008H132.448Z" fill="#CB8A58"/>
<path d="M171.16 35.672C171.16 38.6148 169.991 41.4371 167.91 43.518C165.829 45.599 163.007 46.768 160.064 46.768C157.121 46.768 154.299 45.599 152.218 43.518C150.137 41.4371 148.968 38.6148 148.968 35.672C148.968 32.7291 150.137 29.9068 152.218 27.8259C154.299 25.745 157.121 24.576 160.064 24.576C163.007 24.576 165.829 25.745 167.91 27.8259C169.991 29.9068 171.16 32.7291 171.16 35.672ZM164.36 35.664C164.36 34.5267 163.908 33.4361 163.104 32.6319C162.3 31.8278 161.209 31.376 160.072 31.376C158.935 31.376 157.844 31.8278 157.04 32.6319C156.236 33.4361 155.784 34.5267 155.784 35.664C155.784 36.8012 156.236 37.8919 157.04 38.6961C157.844 39.5002 158.935 39.952 160.072 39.952C161.209 39.952 162.3 39.5002 163.104 38.6961C163.908 37.8919 164.36 36.8012 164.36 35.664Z" fill="#CB8A58"/>
<path d="M198.934 29.2313L194.65 24.9622C194.494 24.8063 194.24 24.8067 194.084 24.9632L149.417 69.7869C149.261 69.9434 149.261 70.1967 149.418 70.3526L153.702 74.6217C153.858 74.7777 154.112 74.7772 154.268 74.6208L198.935 29.797C199.091 29.6405 199.091 29.3873 198.934 29.2313Z" fill="#CB8A58"/>
<path d="M21.368 32.32L21.352 47.976C21.352 48.0317 21.3629 48.0868 21.3842 48.1383C21.4055 48.1897 21.4368 48.2364 21.4761 48.2758C21.5155 48.3152 21.5623 48.3464 21.6137 48.3677C21.6651 48.389 21.7203 48.4 21.776 48.4L82.496 48.36C82.5206 48.3598 82.545 48.366 82.5665 48.3779C82.5881 48.3898 82.606 48.407 82.6183 48.4275C82.6307 48.4481 82.637 48.4713 82.6366 48.4946C82.6361 48.518 82.629 48.5406 82.616 48.56L79.176 54.416C79.1347 54.4842 79.0762 54.5406 79.0062 54.5798C78.9361 54.6191 78.8568 54.6398 78.776 54.64L15.408 54.624C15.3486 54.624 15.2916 54.6012 15.2496 54.5607C15.2076 54.5202 15.184 54.4653 15.184 54.408L15.2 25.96C15.2 25.8963 15.2252 25.8353 15.2703 25.7903C15.3153 25.7453 15.3763 25.72 15.44 25.72L107.712 25.672C108.187 25.672 108.224 25.7973 107.824 26.048L99.008 31.512C98.6933 31.7093 98.3493 31.808 97.976 31.808L21.88 31.8C21.5386 31.8 21.368 31.9733 21.368 32.32Z" fill="#CB8A58"/>
<path d="M199.384 63.952C199.384 66.8927 198.216 69.713 196.136 71.7924C194.057 73.8718 191.237 75.04 188.296 75.04C185.355 75.04 182.535 73.8718 180.456 71.7924C178.376 69.713 177.208 66.8927 177.208 63.952C177.208 61.0113 178.376 58.191 180.456 56.1116C182.535 54.0322 185.355 52.864 188.296 52.864C191.237 52.864 194.057 54.0322 196.136 56.1116C198.216 58.191 199.384 61.0113 199.384 63.952ZM192.576 63.944C192.576 62.8089 192.125 61.7203 191.322 60.9176C190.52 60.1149 189.431 59.664 188.296 59.664C187.161 59.664 186.072 60.1149 185.27 60.9176C184.467 61.7203 184.016 62.8089 184.016 63.944C184.016 65.0791 184.467 66.1678 185.27 66.9704C186.072 67.7731 187.161 68.224 188.296 68.224C189.431 68.224 190.52 67.7731 191.322 66.9704C192.125 66.1678 192.576 65.0791 192.576 63.944Z" fill="#CB8A58"/>
<path d="M21.696 69.92H72.816C72.8674 69.9203 72.9182 69.9319 72.9647 69.954C73.0112 69.976 73.0523 70.008 73.0851 70.0477C73.1179 70.0873 73.1416 70.1337 73.1545 70.1835C73.1675 70.2333 73.1693 70.2854 73.16 70.336L72.104 75.872C72.0891 75.9525 72.0466 76.0253 71.9838 76.0779C71.921 76.1305 71.8418 76.1595 71.76 76.16L15.536 76.168C15.4897 76.168 15.444 76.1589 15.4013 76.1412C15.3585 76.1235 15.3197 76.0976 15.2871 76.0649C15.2544 76.0322 15.2284 75.9934 15.2108 75.9507C15.1931 75.908 15.184 75.8622 15.184 75.816L15.2 62.072C15.2 61.9786 15.237 61.8891 15.3031 61.8231C15.3691 61.7571 15.4586 61.72 15.552 61.72L75.376 61.68C75.432 61.6796 75.4873 61.6927 75.5373 61.718C75.5873 61.7433 75.6305 61.7802 75.6634 61.8255C75.6962 61.8709 75.7178 61.9235 75.7262 61.9789C75.7347 62.0343 75.7298 62.0909 75.712 62.144L73.864 67.704C73.8404 67.7743 73.7952 67.8353 73.7349 67.8784C73.6745 67.9215 73.6021 67.9445 73.528 67.944L21.656 67.928C21.6091 67.928 21.5626 67.9373 21.5194 67.9555C21.4761 67.9737 21.437 68.0004 21.4042 68.0339C21.3714 68.0675 21.3456 68.1072 21.3284 68.1508C21.3112 68.1945 21.3029 68.2411 21.304 68.288L21.344 69.576C21.3461 69.668 21.3841 69.7555 21.4498 69.8197C21.5156 69.884 21.604 69.92 21.696 69.92Z" fill="#CB8A58"/>
<path d="M62.904 92.256L62.952 104.424C62.952 104.524 62.9916 104.619 63.0621 104.69C63.1327 104.76 63.2283 104.8 63.328 104.8L73.848 104.784C73.925 104.784 74.0001 104.808 74.063 104.853C74.126 104.897 74.1738 104.96 74.2 105.032L76.128 110.456C76.1488 110.513 76.1553 110.575 76.147 110.635C76.1387 110.696 76.1159 110.753 76.0805 110.803C76.045 110.852 75.9981 110.892 75.9437 110.92C75.8892 110.947 75.8289 110.961 75.768 110.96L57.136 110.92C57.0363 110.92 56.9407 110.88 56.8701 110.81C56.7996 110.739 56.76 110.644 56.76 110.544L56.792 86.128C56.792 86.0283 56.8316 85.9326 56.9021 85.8621C56.9727 85.7916 57.0683 85.752 57.168 85.752L71.008 85.688C71.105 85.6879 71.1983 85.7253 71.2684 85.7924C71.3385 85.8595 71.3799 85.9511 71.384 86.048L71.632 91.56C71.6354 91.612 71.6278 91.6642 71.6099 91.7132C71.592 91.7621 71.5641 91.8069 71.528 91.8445C71.4919 91.8821 71.4484 91.9118 71.4002 91.9317C71.352 91.9516 71.3001 91.9612 71.248 91.96L63.288 91.872C63.2373 91.8709 63.1869 91.8801 63.1398 91.899C63.0927 91.9179 63.0499 91.9462 63.0141 91.982C62.9782 92.0179 62.9499 92.0607 62.931 92.1078C62.9121 92.1548 62.9029 92.2053 62.904 92.256Z" fill="#CB8A58"/>
<path d="M50.6 110.568C50.6 110.657 50.5646 110.743 50.5016 110.806C50.4386 110.869 50.3531 110.904 50.264 110.904H25.736C25.6469 110.904 25.5614 110.869 25.4984 110.806C25.4354 110.743 25.4 110.657 25.4 110.568V86.136C25.4 86.0469 25.4354 85.9614 25.4984 85.8984C25.5614 85.8354 25.6469 85.8 25.736 85.8H50.264C50.3531 85.8 50.4386 85.8354 50.5016 85.8984C50.5646 85.9614 50.6 86.0469 50.6 86.136V110.568ZM44.4 92.192C44.4 92.1135 44.3688 92.0382 44.3133 91.9827C44.2578 91.9272 44.1825 91.896 44.104 91.896H31.896C31.8175 91.896 31.7422 91.9272 31.6867 91.9827C31.6312 92.0382 31.6 92.1135 31.6 92.192V104.496C31.6 104.574 31.6312 104.65 31.6867 104.705C31.7422 104.761 31.8175 104.792 31.896 104.792H44.104C44.1825 104.792 44.2578 104.761 44.3133 104.705C44.3688 104.65 44.4 104.574 44.4 104.496V92.192Z" fill="#CB8A58"/>
<path d="M50.6 142.576C50.6 142.657 50.568 142.734 50.511 142.791C50.454 142.848 50.3766 142.88 50.296 142.88H25.704C25.6234 142.88 25.5461 142.848 25.4891 142.791C25.4321 142.734 25.4 142.657 25.4 142.576V118.016C25.4 117.976 25.4079 117.937 25.4232 117.9C25.4384 117.863 25.4608 117.829 25.4891 117.801C25.5173 117.773 25.5508 117.75 25.5877 117.735C25.6246 117.72 25.6641 117.712 25.704 117.712H50.296C50.3359 117.712 50.3755 117.72 50.4124 117.735C50.4492 117.75 50.4828 117.773 50.511 117.801C50.5392 117.829 50.5616 117.863 50.5769 117.9C50.5922 117.937 50.6 117.976 50.6 118.016V142.576ZM44.4 124.2C44.4 124.119 44.368 124.042 44.311 123.985C44.254 123.928 44.1766 123.896 44.096 123.896H31.888C31.8481 123.896 31.8086 123.904 31.7717 123.919C31.7348 123.934 31.7013 123.957 31.6731 123.985C31.6448 124.013 31.6224 124.047 31.6072 124.084C31.5919 124.121 31.584 124.16 31.584 124.2V136.36C31.584 136.4 31.5919 136.439 31.6072 136.476C31.6224 136.513 31.6448 136.547 31.6731 136.575C31.7013 136.603 31.7348 136.626 31.7717 136.641C31.8086 136.656 31.8481 136.664 31.888 136.664H44.096C44.1766 136.664 44.254 136.632 44.311 136.575C44.368 136.518 44.4 136.441 44.4 136.36V124.2Z" fill="#CB8A58"/>
<path d="M79.008 117.696C79.1535 117.696 79.2968 117.736 79.4232 117.81C79.5497 117.884 79.6548 117.991 79.728 118.12C80.664 119.768 82.008 121.352 81.992 123.32C81.9333 130.056 81.928 136.464 81.976 142.544C81.976 142.594 81.9661 142.644 81.9468 142.691C81.9275 142.738 81.8992 142.78 81.8635 142.816C81.8279 142.851 81.7856 142.879 81.739 142.899C81.6924 142.918 81.6424 142.928 81.592 142.928H57.248C57.1186 142.928 56.9945 142.877 56.9029 142.787C56.8114 142.697 56.76 142.575 56.76 142.448L56.792 117.976C56.792 117.912 56.8165 117.851 56.86 117.806C56.9035 117.761 56.9625 117.736 57.024 117.736L79.008 117.696ZM75.7547 124.195C75.7547 124.157 75.7473 124.12 75.7329 124.085C75.7185 124.05 75.6973 124.018 75.6706 123.991C75.6439 123.965 75.6122 123.943 75.5773 123.929C75.5424 123.914 75.505 123.907 75.4671 123.907L63.2271 123.885C63.1508 123.885 63.0775 123.915 63.0234 123.969C62.9693 124.023 62.9388 124.096 62.9387 124.173L62.9174 136.365C62.9173 136.403 62.9247 136.44 62.9391 136.475C62.9535 136.51 62.9747 136.542 63.0014 136.569C63.0281 136.595 63.0598 136.617 63.0947 136.631C63.1296 136.646 63.1671 136.653 63.2049 136.653L75.4449 136.675C75.5213 136.675 75.5946 136.645 75.6487 136.591C75.7027 136.537 75.7332 136.464 75.7334 136.387L75.7547 124.195Z" fill="#CB8A58"/>
<path d="M88.08 142.392L88.128 130.96C88.1333 130.4 88.3226 130.325 88.696 130.736C92.7706 135.232 97.2826 139.045 102.232 142.176C103.016 142.672 102.944 142.92 102.016 142.92L88.592 142.904C88.4562 142.904 88.3259 142.85 88.2299 142.754C88.1339 142.658 88.08 142.528 88.08 142.392Z" fill="#CB8A58"/>
<path d="M50.6 174.44C50.6 174.525 50.5663 174.606 50.5063 174.666C50.4463 174.726 50.3649 174.76 50.28 174.76H25.72C25.6352 174.76 25.5538 174.726 25.4938 174.666C25.4337 174.606 25.4 174.525 25.4 174.44V149.768C25.4 149.726 25.4083 149.684 25.4244 149.646C25.4405 149.607 25.464 149.571 25.4938 149.542C25.5235 149.512 25.5587 149.488 25.5976 149.472C25.6364 149.456 25.678 149.448 25.72 149.448H50.28C50.322 149.448 50.3637 149.456 50.4025 149.472C50.4413 149.488 50.4766 149.512 50.5063 149.542C50.536 149.571 50.5596 149.607 50.5757 149.646C50.5917 149.684 50.6 149.726 50.6 149.768V174.44ZM44.4 156.056C44.4 155.956 44.3604 155.861 44.2899 155.79C44.2194 155.72 44.1237 155.68 44.024 155.68H31.96C31.8603 155.68 31.7647 155.72 31.6942 155.79C31.6236 155.861 31.584 155.956 31.584 156.056V168.216C31.584 168.316 31.6236 168.411 31.6942 168.482C31.7647 168.552 31.8603 168.592 31.96 168.592H44.024C44.1237 168.592 44.2194 168.552 44.2899 168.482C44.3604 168.411 44.4 168.316 44.4 168.216V156.056Z" fill="#CB8A58"/>
<path d="M81.9519 174.36C81.9519 174.414 81.9414 174.467 81.9209 174.516C81.9004 174.566 81.8703 174.611 81.8324 174.648C81.7946 174.686 81.7496 174.716 81.7001 174.737C81.6506 174.757 81.5975 174.768 81.5439 174.768H57.1759C57.1224 174.768 57.0693 174.757 57.0198 174.737C56.9703 174.716 56.9253 174.686 56.8874 174.648C56.8496 174.611 56.8195 174.566 56.799 174.516C56.7785 174.467 56.7679 174.414 56.7679 174.36V149.848C56.7679 149.74 56.8109 149.636 56.8874 149.559C56.964 149.483 57.0677 149.44 57.1759 149.44H81.5439C81.6522 149.44 81.7559 149.483 81.8324 149.559C81.909 149.636 81.9519 149.74 81.9519 149.848V174.36ZM75.7359 156.04C75.7359 155.947 75.6989 155.857 75.6328 155.791C75.5668 155.725 75.4773 155.688 75.3839 155.688H63.2879C63.1946 155.688 63.1051 155.725 63.039 155.791C62.973 155.857 62.9359 155.947 62.9359 156.04V168.232C62.9359 168.325 62.973 168.415 63.039 168.481C63.1051 168.547 63.1946 168.584 63.2879 168.584H75.3839C75.4773 168.584 75.5668 168.547 75.6328 168.481C75.6989 168.415 75.7359 168.325 75.7359 168.232V156.04Z" fill="#CB8A58"/>
<path d="M113.248 174.384C113.248 174.432 113.239 174.48 113.22 174.525C113.202 174.569 113.174 174.61 113.14 174.644C113.106 174.678 113.066 174.705 113.021 174.724C112.976 174.742 112.928 174.752 112.88 174.752H88.512C88.4144 174.752 88.3208 174.713 88.2518 174.644C88.1828 174.575 88.144 174.482 88.144 174.384V149.808C88.144 149.71 88.1828 149.617 88.2518 149.548C88.3208 149.479 88.4144 149.44 88.512 149.44H112.88C112.928 149.44 112.976 149.45 113.021 149.468C113.066 149.487 113.106 149.514 113.14 149.548C113.174 149.582 113.202 149.623 113.22 149.667C113.239 149.712 113.248 149.76 113.248 149.808V174.384ZM107.064 156.056C107.064 155.967 107.029 155.881 106.966 155.818C106.903 155.755 106.817 155.72 106.728 155.72H94.6C94.5109 155.72 94.4255 155.755 94.3625 155.818C94.2994 155.881 94.264 155.967 94.264 156.056V168.248C94.264 168.337 94.2994 168.423 94.3625 168.486C94.4255 168.549 94.5109 168.584 94.6 168.584H106.728C106.817 168.584 106.903 168.549 106.966 168.486C107.029 168.423 107.064 168.337 107.064 168.248V156.056Z" fill="#CB8A58"/>
<path d="M126.144 172.616C126.12 178.056 123.064 182.624 118.064 184.768C116.379 185.483 113.461 185.829 109.312 185.808C99.5893 185.755 90.248 185.741 81.288 185.768C81.112 185.768 81.0266 185.683 81.032 185.512V179.84C81.032 179.747 81.0691 179.657 81.1351 179.591C81.2011 179.525 81.2906 179.488 81.384 179.488C91.2186 179.493 101.64 179.504 112.648 179.52C117.072 179.528 120 176.672 120.008 172.24C120.013 165.035 120 157.867 119.968 150.736C119.968 150.689 119.979 150.642 119.999 150.599C120.019 150.557 120.048 150.519 120.084 150.489C120.12 150.459 120.162 150.438 120.207 150.427C120.252 150.415 120.299 150.415 120.344 150.424L125.808 151.632C125.907 151.652 125.997 151.706 126.061 151.785C126.125 151.864 126.16 151.962 126.16 152.064C126.187 159.056 126.181 165.907 126.144 172.616Z" fill="#CB8A58"/>
</g>
<defs>
<clipPath id="clip0_1_3">
<rect width="200" height="200" fill="white"/>
</clipPath>
</defs>
</svg>
