<svg width="200" height="200" viewBox="0 0 200 200" fill="none" xmlns="http://www.w3.org/2000/svg">
<g clip-path="url(#clip0_1_61)">
<path d="M55.84 0H70.632C72.776 0.341333 74.2827 1.152 75.152 2.432C75.712 3.264 75.88 3.856 76.92 4.096C108.851 11.28 140.808 18.4907 172.792 25.728C175.325 26.2987 177.941 26.6027 180.64 26.64C185.456 26.7093 189.376 26.7253 192.4 26.688C196.603 26.6347 199.136 28.6213 200 32.648V40.896C199.029 44.8267 196.427 46.7947 192.192 46.8C185.621 46.8053 179.435 46.7813 173.632 46.728C173.59 46.7269 173.549 46.7342 173.51 46.7494C173.471 46.7646 173.436 46.7874 173.406 46.8165C173.376 46.8456 173.353 46.8803 173.336 46.9187C173.32 46.9571 173.312 46.9983 173.312 47.04L173.32 59.448C173.32 59.8427 173.517 60.0373 173.912 60.032C175.496 60.008 177.192 59.824 178.696 60.32C182.24 61.48 183.504 64.624 183.424 68.192C183.349 71.3867 183.355 74.6667 183.44 78.032C183.56 83 181.296 86.728 176.008 86.728C172.835 86.7333 169.285 86.76 165.36 86.808C160.112 86.872 156.448 84.52 156.576 78.84C156.661 75.0587 156.661 71.2827 156.576 67.512C156.539 65.848 156.925 64.3707 157.736 63.08C159.736 59.904 162.672 59.912 166.176 60.032C166.491 60.0427 166.648 59.8933 166.648 59.584L166.664 46.992C166.664 46.922 166.635 46.8548 166.584 46.8053C166.533 46.7558 166.464 46.728 166.392 46.728L90.608 46.688C90.1973 46.688 89.9893 46.8933 89.984 47.304C89.928 50.432 90.36 53.888 89.504 56.824C87.8027 62.632 83.6507 65.9547 77.048 66.792C76.942 66.8073 76.8449 66.8601 76.7745 66.9408C76.704 67.0216 76.6648 67.1249 76.664 67.232L76.624 159.448C76.6236 159.563 76.6587 159.676 76.7246 159.77C76.7904 159.865 76.8838 159.937 76.992 159.976C77.72 160.232 78.64 160.128 79.368 160.368C83.3947 161.696 85.7707 164.381 86.496 168.424C86.784 170.056 86.648 171.768 86.672 173.432C86.6773 173.715 86.8107 173.915 87.072 174.032C91.232 175.899 93.3173 179.251 93.328 184.088C93.328 186.952 93.3307 189.88 93.336 192.872C93.336 196.696 91.032 199.288 87.288 200H39.352C35.736 199.291 33.7387 197.36 33.36 194.208C33.1893 192.747 33.16 189.613 33.272 184.808C33.336 182.061 33.7413 180.005 34.488 178.64C35.6613 176.501 37.3493 174.976 39.552 174.064C39.8347 173.947 39.9787 173.736 39.984 173.432C40.04 171.2 39.72 168.752 40.528 166.656C42.1227 162.555 45.2 160.344 49.76 160.024C49.8251 160.02 49.8862 159.991 49.9308 159.944C49.9754 159.896 50.0001 159.833 50 159.768L49.992 66.624C49.9921 66.4655 49.9442 66.3102 49.8545 66.1777C49.7647 66.0453 49.6372 65.9417 49.488 65.88C44.896 63.984 43.2 60.008 43.328 54.984C43.392 52.2907 43.4 49.672 43.352 47.128C43.3499 47.0254 43.3077 46.9278 43.2344 46.856C43.1611 46.7842 43.0626 46.744 42.96 46.744C31.0507 46.744 19.2667 46.7547 7.608 46.776C3.496 46.7867 0.96 44.8373 0 40.928V32.216C0.586667 30.0133 1.8 28.4133 3.64 27.416C5.736 26.272 8.168 27.2 10.456 25.968C22.824 19.3333 35.9573 12.272 49.856 4.784C50.0747 4.66423 50.2531 4.4803 50.368 4.256C51.568 1.89333 53.392 0.474667 55.84 0ZM70 7.04C70 6.95513 69.9663 6.87374 69.9063 6.81373C69.8463 6.75371 69.7649 6.72 69.68 6.72H56.928C56.8431 6.72 56.7617 6.75371 56.7017 6.81373C56.6417 6.87374 56.608 6.95513 56.608 7.04V19.68C56.608 19.7649 56.6417 19.8463 56.7017 19.9063C56.7617 19.9663 56.8431 20 56.928 20H69.68C69.7649 20 69.8463 19.9663 69.9063 19.9063C69.9663 19.8463 70 19.7649 70 19.68V7.04ZM77.184 20.008C81.84 20.32 85.288 22.48 87.928 26.248C88.1253 26.5307 88.3947 26.672 88.736 26.672L144.16 26.728C145.973 26.728 145.995 26.528 144.224 26.128L76.992 10.904C76.9488 10.8944 76.9041 10.8947 76.861 10.9047C76.8179 10.9147 76.7776 10.9342 76.7431 10.9619C76.7086 10.9895 76.6807 11.0245 76.6614 11.0643C76.6422 11.1042 76.6322 11.1478 76.632 11.192L76.608 19.4C76.608 19.7787 76.8 19.9813 77.184 20.008ZM49.824 12.4L24.056 26.272C23.5173 26.5653 23.5547 26.712 24.168 26.712L43.408 26.744C43.5407 26.7445 43.6708 26.7052 43.7819 26.6312C43.8929 26.5572 43.9799 26.4517 44.032 26.328C45.184 23.6507 47.1147 21.752 49.824 20.632C49.8738 20.6126 49.9166 20.5784 49.9466 20.5341C49.9766 20.4898 49.9924 20.4375 49.992 20.384L50.016 12.512C50.0162 12.4894 50.0104 12.4672 49.9993 12.4476C49.9881 12.428 49.972 12.4117 49.9525 12.4003C49.933 12.3889 49.9109 12.3829 49.8883 12.3828C49.8657 12.3828 49.8435 12.3887 49.824 12.4ZM73.416 50.008C69.592 50.016 66.152 47.92 64.416 44.624C63.6427 43.152 63.2773 41.24 63.32 38.888C63.3947 34.7547 63.4107 30.8747 63.368 27.248C63.3659 27.103 63.3077 26.9647 63.2059 26.8629C63.1041 26.7611 62.9669 26.704 62.824 26.704L53.44 26.712C52.5277 26.712 51.6527 27.0753 51.0076 27.7219C50.3624 28.3685 50 29.2455 50 30.16V56.648C50 57.0899 50.0872 57.5275 50.2565 57.9357C50.4259 58.3438 50.6741 58.7146 50.9869 59.0267C51.2998 59.3388 51.6711 59.5862 52.0797 59.7545C52.4883 59.9229 52.9261 60.0091 53.368 60.008C61.6933 59.9813 69.1333 59.9813 75.688 60.008C81.696 60.024 83.776 55.776 83.352 50.44C83.3307 50.1413 83.1707 49.9947 82.872 50C79.7787 50 76.6267 50.0027 73.416 50.008ZM83.312 33.544C83.232 30.624 81.04 26.928 77.704 26.792C75.4213 26.7067 72.9707 26.664 70.352 26.664C70.2544 26.664 70.1608 26.7028 70.0918 26.7718C70.0228 26.8408 69.984 26.9344 69.984 27.032L70 40.144C70.0021 40.9772 70.334 41.7757 70.9232 42.3648C71.5123 42.954 72.3108 43.2859 73.144 43.288L82.952 43.328C83.0525 43.328 83.149 43.2887 83.2207 43.2184C83.2925 43.1481 83.3339 43.0524 83.336 42.952C83.4 39.7893 83.392 36.6533 83.312 33.544ZM43.368 33.672C43.368 33.5786 43.3309 33.4891 43.2649 33.4231C43.1989 33.3571 43.1094 33.32 43.016 33.32H7.032C6.93864 33.32 6.84911 33.3571 6.7831 33.4231C6.71709 33.4891 6.68 33.5786 6.68 33.672V39.64C6.68 39.7334 6.71709 39.8229 6.7831 39.8889C6.84911 39.9549 6.93864 39.992 7.032 39.992H43.016C43.1094 39.992 43.1989 39.9549 43.2649 39.8889C43.3309 39.8229 43.368 39.7334 43.368 39.64V33.672ZM193.312 33.592C193.312 33.5241 193.285 33.459 193.237 33.411C193.189 33.363 193.124 33.336 193.056 33.336H90.256C90.1881 33.336 90.123 33.363 90.075 33.411C90.027 33.459 90 33.5241 90 33.592V39.736C90 39.8039 90.027 39.869 90.075 39.917C90.123 39.965 90.1881 39.992 90.256 39.992H193.056C193.124 39.992 193.189 39.965 193.237 39.917C193.285 39.869 193.312 39.8039 193.312 39.736V33.592ZM69.976 67.104C69.976 67.0536 69.9661 67.0036 69.9468 66.9571C69.9275 66.9105 69.8992 66.8681 69.8635 66.8325C69.8279 66.7968 69.7855 66.7685 69.739 66.7492C69.6924 66.7299 69.6424 66.72 69.592 66.72H57C56.8982 66.72 56.8005 66.7605 56.7285 66.8325C56.6565 66.9045 56.616 67.0022 56.616 67.104V159.616C56.616 159.718 56.6565 159.816 56.7285 159.888C56.8005 159.96 56.8982 160 57 160H69.592C69.6424 160 69.6924 159.99 69.739 159.971C69.7855 159.951 69.8279 159.923 69.8635 159.888C69.8992 159.852 69.9275 159.81 69.9468 159.763C69.9661 159.716 69.976 159.666 69.976 159.616V67.104ZM176.624 67.008C176.624 66.9316 176.594 66.8584 176.54 66.8044C176.486 66.7503 176.412 66.72 176.336 66.72H163.68C163.604 66.72 163.53 66.7503 163.476 66.8044C163.422 66.8584 163.392 66.9316 163.392 67.008V79.712C163.392 79.7884 163.422 79.8616 163.476 79.9157C163.53 79.9697 163.604 80 163.68 80H176.336C176.412 80 176.486 79.9697 176.54 79.9157C176.594 79.8616 176.624 79.7884 176.624 79.712V67.008ZM46.896 169.08C46.688 169.827 46.576 170.755 46.56 171.864C46.544 172.797 47.0027 173.264 47.936 173.264H78.424C79.9227 173.264 80.4933 172.539 80.136 171.088C80.04 170.699 79.8827 170.048 79.664 169.136C79.2747 167.552 78.2667 166.76 76.64 166.76L49.984 166.736C48.3627 166.736 47.3333 167.517 46.896 169.08ZM86.68 192.944L86.648 183.224C86.6438 182.37 86.3022 181.552 85.6981 180.949C85.0939 180.346 84.2763 180.008 83.424 180.008H43.408C42.9626 180.008 42.5215 180.096 42.1099 180.266C41.6984 180.436 41.3245 180.685 41.0095 180.999C40.6945 181.313 40.4447 181.686 40.2742 182.097C40.1037 182.508 40.016 182.948 40.016 183.392L39.992 192.816C39.992 192.926 40.0367 193.032 40.1162 193.11C40.1957 193.188 40.3035 193.232 40.416 193.232L86.392 193.24C86.5893 193.24 86.6853 193.141 86.68 192.944Z" fill="#CB8A58"/>
<path d="M200 95.888V194.2C199.275 197.443 197.237 199.376 193.888 200H105.936C102.056 199.184 99.992 196.584 99.992 192.696C99.992 169.976 99.984 147.16 99.968 124.248C99.968 120.512 101.728 117.312 105.688 116.84C108.099 116.552 110.685 116.504 113.448 116.696C116.728 116.931 118.813 118.568 119.704 121.608C120.16 123.152 119.992 124.792 119.984 126.392C119.984 126.477 120.019 126.558 120.08 126.618C120.142 126.678 120.225 126.712 120.312 126.712L139.568 126.728C139.861 126.728 140.008 126.581 140.008 126.288C139.987 116.667 139.984 106.984 140 97.24C140 92.76 143 89.752 147.392 89.96C150.176 90.088 154.008 89.4 156.48 90.792C160.104 92.824 160.016 95.92 160 99.552C159.995 99.8453 160.139 99.992 160.432 99.992H179.568C179.851 99.992 179.995 99.8507 180 99.568C180.032 97.92 179.808 96.176 180.344 94.568C182.224 88.984 187.872 90.024 192.4 89.936C196.539 89.8613 199.072 91.8453 200 95.888ZM143.416 133.272L116.528 133.336C116.105 133.337 115.687 133.255 115.296 133.093C114.905 132.932 114.55 132.695 114.252 132.396C113.953 132.098 113.716 131.743 113.555 131.352C113.393 130.961 113.311 130.543 113.312 130.12V123.496C113.312 123.4 113.261 123.352 113.16 123.352L106.888 123.368C106.765 123.368 106.704 123.429 106.704 123.552L106.68 192.768C106.68 192.831 106.693 192.893 106.717 192.952C106.742 193.01 106.778 193.063 106.823 193.107C106.868 193.152 106.922 193.187 106.981 193.211C107.04 193.236 107.104 193.248 107.168 193.248L193.08 193.264C193.235 193.264 193.312 193.184 193.312 193.024L193.328 96.832C193.328 96.7253 193.272 96.672 193.16 96.672L186.912 96.688C186.882 96.688 186.852 96.694 186.824 96.7058C186.797 96.7175 186.772 96.7348 186.751 96.7564C186.73 96.7781 186.713 96.8037 186.703 96.8318C186.692 96.8599 186.687 96.8899 186.688 96.92C186.715 99.0053 186.725 100.936 186.72 102.712C186.709 105.389 185.357 106.733 182.664 106.744C174.136 106.781 165.507 106.779 156.776 106.736C155.852 106.732 154.966 106.361 154.314 105.704C153.662 105.047 153.296 104.159 153.296 103.232L153.312 96.92C153.312 96.7867 153.243 96.7173 153.104 96.712L146.952 96.664C146.781 96.664 146.696 96.752 146.696 96.928L146.704 129.976C146.704 130.849 146.358 131.686 145.741 132.304C145.125 132.922 144.289 133.27 143.416 133.272Z" fill="#CB8A58"/>
<path d="M186.683 126.55C186.687 127.427 186.517 128.296 186.184 129.108C185.851 129.919 185.362 130.658 184.743 131.28C184.125 131.902 183.391 132.397 182.581 132.736C181.772 133.074 180.904 133.25 180.027 133.253L160.027 133.323C159.15 133.326 158.281 133.156 157.469 132.823C156.657 132.49 155.919 132.001 155.297 131.383C154.674 130.765 154.18 130.03 153.841 129.221C153.503 128.411 153.327 127.543 153.324 126.666L153.3 119.994C153.297 119.117 153.467 118.248 153.8 117.436C154.133 116.625 154.622 115.886 155.24 115.264C155.859 114.641 156.593 114.147 157.403 113.808C158.212 113.47 159.08 113.294 159.957 113.291L179.957 113.221C180.834 113.218 181.703 113.388 182.515 113.721C183.327 114.054 184.065 114.543 184.687 115.161C185.31 115.779 185.804 116.514 186.143 117.323C186.481 118.133 186.657 119.001 186.66 119.878L186.683 126.55ZM180 120.368C180 120.27 179.961 120.177 179.892 120.108C179.823 120.039 179.73 120 179.632 120H160.368C160.32 120 160.272 120.01 160.227 120.028C160.183 120.047 160.142 120.074 160.108 120.108C160.074 120.142 160.046 120.183 160.028 120.227C160.01 120.272 160 120.32 160 120.368V126.368C160 126.416 160.01 126.464 160.028 126.509C160.046 126.553 160.074 126.594 160.108 126.628C160.142 126.662 160.183 126.689 160.227 126.708C160.272 126.726 160.32 126.736 160.368 126.736H179.632C179.73 126.736 179.823 126.697 179.892 126.628C179.961 126.559 180 126.466 180 126.368V120.368Z" fill="#CB8A58"/>
<path d="M146.704 153.152C146.704 154.966 145.983 156.706 144.701 157.989C143.418 159.271 141.678 159.992 139.864 159.992H120.136C118.322 159.992 116.582 159.271 115.299 157.989C114.017 156.706 113.296 154.966 113.296 153.152V146.832C113.296 145.018 114.017 143.278 115.299 141.995C116.582 140.713 118.322 139.992 120.136 139.992H139.864C141.678 139.992 143.418 140.713 144.701 141.995C145.983 143.278 146.704 145.018 146.704 146.832V153.152ZM139.995 147.055C139.995 147.007 139.985 146.96 139.967 146.917C139.949 146.873 139.923 146.834 139.889 146.8C139.856 146.767 139.816 146.74 139.772 146.722C139.728 146.704 139.682 146.695 139.634 146.695L120.354 146.729C120.307 146.729 120.26 146.738 120.217 146.756C120.173 146.775 120.133 146.801 120.1 146.835C120.067 146.868 120.04 146.908 120.022 146.952C120.004 146.995 119.995 147.042 119.995 147.089L120.005 152.913C120.005 152.961 120.015 153.008 120.033 153.051C120.051 153.095 120.078 153.134 120.111 153.168C120.145 153.201 120.184 153.228 120.228 153.246C120.272 153.264 120.319 153.273 120.366 153.273L139.646 153.239C139.693 153.239 139.74 153.23 139.783 153.212C139.827 153.193 139.867 153.167 139.9 153.133C139.933 153.1 139.96 153.06 139.978 153.016C139.996 152.973 140.005 152.926 140.005 152.879L139.995 147.055Z" fill="#CB8A58"/>
<path d="M186.68 153.184C186.68 154.99 185.963 156.721 184.686 157.998C183.409 159.275 181.678 159.992 179.872 159.992H160.112C158.306 159.992 156.575 159.275 155.298 157.998C154.021 156.721 153.304 154.99 153.304 153.184V146.8C153.304 144.994 154.021 143.263 155.298 141.986C156.575 140.709 158.306 139.992 160.112 139.992H179.872C181.678 139.992 183.409 140.709 184.686 141.986C185.963 143.263 186.68 144.994 186.68 146.8V153.184ZM180 147.064C180 146.977 179.965 146.894 179.904 146.832C179.842 146.771 179.759 146.736 179.672 146.736H160.328C160.241 146.736 160.158 146.771 160.096 146.832C160.035 146.894 160 146.977 160 147.064V152.936C160 153.023 160.035 153.106 160.096 153.168C160.158 153.229 160.241 153.264 160.328 153.264H179.672C179.759 153.264 179.842 153.229 179.904 153.168C179.965 153.106 180 153.023 180 152.936V147.064Z" fill="#CB8A58"/>
<path d="M146.704 179.872C146.704 181.692 145.981 183.438 144.694 184.726C143.406 186.013 141.66 186.736 139.84 186.736H120.16C118.34 186.736 116.594 186.013 115.306 184.726C114.019 183.438 113.296 181.692 113.296 179.872V173.536C113.296 171.716 114.019 169.97 115.306 168.682C116.594 167.395 118.34 166.672 120.16 166.672H139.84C141.66 166.672 143.406 167.395 144.694 168.682C145.981 169.97 146.704 171.716 146.704 173.536V179.872ZM140 173.616C140 173.574 139.992 173.532 139.976 173.494C139.96 173.455 139.936 173.419 139.906 173.39C139.877 173.36 139.841 173.336 139.802 173.32C139.764 173.304 139.722 173.296 139.68 173.296H120.32C120.278 173.296 120.236 173.304 120.198 173.32C120.159 173.336 120.123 173.36 120.094 173.39C120.064 173.419 120.04 173.455 120.024 173.494C120.008 173.532 120 173.574 120 173.616V179.664C120 179.749 120.034 179.83 120.094 179.89C120.154 179.95 120.235 179.984 120.32 179.984H139.68C139.765 179.984 139.846 179.95 139.906 179.89C139.966 179.83 140 179.749 140 179.664V173.616Z" fill="#CB8A58"/>
<path d="M186.68 179.904C186.68 181.716 185.96 183.454 184.679 184.735C183.398 186.016 181.66 186.736 179.848 186.736H160.136C158.324 186.736 156.586 186.016 155.305 184.735C154.024 183.454 153.304 181.716 153.304 179.904V173.52C153.304 171.708 154.024 169.97 155.305 168.689C156.586 167.408 158.324 166.688 160.136 166.688H179.848C181.66 166.688 183.398 167.408 184.679 168.689C185.96 169.97 186.68 171.708 186.68 173.52V179.904ZM180 173.6C180 173.517 179.967 173.438 179.909 173.379C179.85 173.321 179.771 173.288 179.688 173.288H160.312C160.229 173.288 160.15 173.321 160.091 173.379C160.033 173.438 160 173.517 160 173.6V179.68C160 179.763 160.033 179.842 160.091 179.901C160.15 179.959 160.229 179.992 160.312 179.992H179.688C179.771 179.992 179.85 179.959 179.909 179.901C179.967 179.842 180 179.763 180 179.68V173.6Z" fill="#CB8A58"/>
</g>
<defs>
<clipPath id="clip0_1_61">
<rect width="200" height="200" fill="white"/>
</clipPath>
</defs>
</svg>
