<svg width="200" height="200" viewBox="0 0 200 200" fill="none" xmlns="http://www.w3.org/2000/svg">
<path d="M95.3822 0H106.036C107.796 0.0237037 109.336 0.454815 110.658 1.29333C112.095 2.2 113.039 3.40593 113.489 4.91111C114.356 7.81333 113.258 10 111.36 12.2489C109.843 14.0504 108.324 15.923 106.804 17.8667C106.788 17.887 106.778 17.9114 106.774 17.9373C106.771 17.9632 106.775 17.9895 106.785 18.0133C106.796 18.0372 106.813 18.0577 106.834 18.0726C106.856 18.0875 106.881 18.0962 106.907 18.0978C110.942 18.4978 114.311 19.3422 117.391 22.1422C118.425 23.0874 119.609 24.7215 120.942 27.0444C124.364 33.0148 127.394 38.3126 130.031 42.9378C130.882 44.4311 131.658 46.123 132.36 48.0133C132.416 48.1615 132.52 48.2133 132.671 48.1689C134.636 47.5704 136.554 47.4178 138.427 47.7111C145.964 48.8993 153.323 50.037 160.502 51.1244C162.573 51.4385 164.191 51.8859 165.356 52.4667C169.956 54.7733 172.831 59.8044 172.027 65.0044C170.071 77.6741 168.079 90.4919 166.049 103.458C165.218 108.769 161.16 112.787 155.871 113.68C154.603 113.893 152.502 113.761 149.569 113.284C143.284 112.259 137.006 111.28 130.733 110.347C130.484 110.311 130.437 110.393 130.591 110.591C139.566 122.147 144.674 135.775 145.916 151.476C146.17 154.69 146.207 157.61 146.027 160.236C145.482 168.138 143.132 175.089 138.978 181.089C130.951 192.689 119.646 198.993 105.062 200H68.2089C47.7422 198.742 31.0978 184.493 27.6934 164.16C27.2815 161.692 27.1215 158.819 27.2134 155.542C27.5126 144.683 30.2578 134.464 35.4489 124.884C41.2178 114.236 49.3422 104.738 57.8489 95.7467C57.9763 95.6104 57.9556 95.5022 57.7867 95.4222C52.08 92.6889 50.2622 86.0489 53.1867 80.5289C53.2637 80.3837 53.2222 80.2874 53.0622 80.24C44.4222 77.76 39.6622 67.9422 46.7422 60.8444C46.8667 60.723 46.8593 60.6089 46.72 60.5022C40.1911 55.4489 40.0267 45.8222 47.2356 41.1822C47.3867 41.0844 47.406 40.9644 47.2934 40.8222C40.1111 31.8311 47.8178 20.6889 58.44 21.4711C58.4596 21.473 58.4792 21.4694 58.4969 21.4608C58.5145 21.4522 58.5295 21.4389 58.54 21.4224C58.5506 21.4058 58.5564 21.3867 58.5568 21.367C58.5572 21.3474 58.5522 21.3281 58.5422 21.3111C57.3511 19.2281 56.1037 17.163 54.8 15.1156C53.8726 13.6578 53.3526 12.3689 53.24 11.2489C52.9245 8.03556 55.1289 4.86667 58.3689 4.31111C59.4563 4.12444 60.8563 4.20741 62.5689 4.56C66.0208 5.27111 69.6815 5.13926 73.5511 4.16444C76.3422 3.46222 79.1274 2.73037 81.9067 1.96889C86.3126 0.765926 90.8045 0.10963 95.3822 0ZM82.9156 22.5156C85.3956 18.1556 90.2889 15.7467 95.2311 16.2844C96.3422 16.403 97.5022 16.5793 98.7111 16.8133C98.9097 16.8519 99.0741 16.7911 99.2045 16.6311L106.938 7.12889C107.133 6.88889 107.076 6.76593 106.764 6.76C102.492 6.67704 98.3067 6.68889 94.2089 6.79556C87.7422 6.96 81.8889 8.90667 75.8045 10.4978C70.6015 11.8607 65.4445 12.0133 60.3334 10.9556C60.3128 10.9506 60.2912 10.9519 60.2714 10.9592C60.2515 10.9666 60.2343 10.9797 60.2219 10.9968C60.2095 11.014 60.2025 11.0344 60.2018 11.0556C60.2011 11.0767 60.2066 11.0976 60.2178 11.1156L67.0711 22.4978C67.1143 22.5674 67.172 22.6268 67.2403 22.6721C67.3085 22.7174 67.3858 22.7473 67.4667 22.76C70.8622 23.243 73.9852 23.7348 76.8356 24.2356C78.1126 24.4607 79.4134 24.9437 80.7378 25.6844C80.7873 25.712 80.8454 25.7199 80.9005 25.7068C80.9556 25.6936 81.0038 25.6603 81.0356 25.6133C81.6785 24.6178 82.3052 23.5852 82.9156 22.5156ZM111.378 76.7689C105.562 73.1067 101.138 68.277 98.1067 62.28C97.9822 62.037 97.9378 62.0504 97.9734 62.32C98.2015 64.0237 98.3822 65.6504 98.5156 67.2C99.3156 76.4444 106.538 82.3378 111.956 88.9511C114.012 91.4607 116.077 94.2074 118.151 97.1911C118.258 97.3481 118.326 97.3333 118.356 97.1467C119.849 87.5467 121.317 78.1289 122.76 68.8933C122.867 68.2089 123.039 67.64 123.276 67.1867C123.969 65.8578 125.698 65.2311 127.102 65.6889C128.867 66.2667 129.676 67.7956 129.404 69.5689C128.009 78.6622 126.616 87.563 125.227 96.2711C125.084 97.16 125.053 97.9926 125.133 98.7689C125.382 101.262 127.382 103.062 129.876 103.453C138.05 104.73 145.873 105.932 153.342 107.058C155.28 107.347 157.187 106.551 158.378 104.978C158.979 104.184 159.394 103.039 159.622 101.542C161.584 88.6711 163.492 76.3941 165.347 64.7111C165.92 61.1022 164 58.4133 160.387 57.8578C152.31 56.6163 144.636 55.4267 137.364 54.2889C134.218 53.7956 131.556 55.9556 131.031 59.0133C130.502 62.1289 126.418 63.0933 124.827 60.1956C123.644 58.0356 125.391 54.2844 126.68 52.5422C126.781 52.4059 126.803 52.2578 126.747 52.0978C125.861 49.5052 124.815 47.1674 123.609 45.0844C120.498 39.7096 117.421 34.36 114.378 29.0356C113.129 26.8533 111.276 25.4711 108.756 25.0933C104.255 24.4178 99.843 23.7274 95.52 23.0222C92.8534 22.5867 90.2889 23.24 88.88 25.5733C85.7837 30.6993 82.6119 35.917 79.3645 41.2267C78.5689 42.5244 76.4978 44.6 77.6889 46.2356C80.2845 49.8 85.4711 50.6311 88.3645 46.9689C90.2459 44.5807 92.1037 42.1985 93.9378 39.8222C96.1245 36.9822 100.169 38.0133 100.236 41.64C100.462 53.7733 104.471 65.0133 115.351 71.3378C115.882 71.6459 116.283 71.9407 116.556 72.2222C118.653 74.3911 117.173 77.8089 114.173 77.8756C113.504 77.8904 112.572 77.5215 111.378 76.7689ZM77.28 31.36C76.5808 31.04 75.88 30.8222 75.1778 30.7067C69.483 29.7852 63.9615 28.9274 58.6134 28.1333C55.3422 27.6489 51.4 29.4444 51.24 33.1111C51.1067 36.16 53.8756 38.6 56.7867 39.0622C61.5897 39.8267 66.3867 40.5748 71.1778 41.3067C71.3348 41.3304 71.4534 41.2756 71.5334 41.1422L77.3822 31.6889C77.4711 31.5407 77.4371 31.4311 77.28 31.36ZM77.9067 54.7911C74.7897 53.2267 72.5837 51.0593 71.2889 48.2889C71.2545 48.219 71.2039 48.1583 71.1413 48.1119C71.0786 48.0655 71.0058 48.0348 70.9289 48.0222C65.8741 47.2252 60.8208 46.4474 55.7689 45.6889C53.9082 45.4074 52.1778 45.8356 50.5778 46.9733C47.0356 49.4978 48.3556 54.0578 51.7289 55.8711C52.6208 56.3511 53.7171 56.6874 55.0178 56.88C60.6356 57.7096 65.7837 58.5007 70.4622 59.2533C73.6045 59.7556 77.2045 58.3867 78.04 55.0844C78.0756 54.9511 78.0311 54.8533 77.9067 54.7911ZM38.96 132.862C35.8785 139.837 34.1852 147.364 33.88 155.444C33.5156 165.119 36.3408 173.49 42.3556 180.56C48.1111 187.329 56.4222 191.862 65.1067 192.96C67.4711 193.259 70.3822 193.394 73.84 193.364C82.6489 193.293 91.3763 193.298 100.022 193.378C103.539 193.41 106.453 193.246 108.764 192.884C116.145 191.726 122.489 188.701 127.796 183.809C135.902 176.339 139.784 166.966 139.44 155.689C138.889 137.516 132.049 119.844 118.676 107.547C116.458 105.507 114.218 103.138 112.427 100.649C110.076 97.3822 107.747 94.1111 105.067 91.1778C103.236 89.1718 101.416 87.0993 99.6089 84.96C96.2252 80.9482 93.84 76.5215 92.4534 71.68C92.1156 70.4978 92.0934 69.2622 91.92 68.0356C91.8934 67.8667 91.7956 67.7793 91.6267 67.7733C90.6711 67.7511 89.7111 67.8889 88.8 67.5778C87 66.9556 86.08 64.9422 86.8356 63.1778C87.5778 61.4444 89.0489 61.0267 90.8311 61.1333C91.0208 61.1452 91.1052 61.0563 91.0845 60.8667L90.3289 54.3511C90.3052 54.1585 90.2104 54.1126 90.0445 54.2133C88.4771 55.1556 86.7393 55.7259 84.8311 55.9244C84.7779 55.9308 84.7282 55.9536 84.6891 55.9896C84.6499 56.0255 84.6234 56.0727 84.6134 56.1244C84.1659 58.5037 83.04 60.5556 81.2356 62.28C81.1022 62.4104 81.1126 62.5274 81.2667 62.6311C84.4489 64.8044 86.5156 68.6178 86.32 72.4622C86.1482 75.8874 84.5408 78.7037 81.4978 80.9111C81.3674 81.0059 81.3452 81.12 81.4311 81.2533C83.2415 84.0622 83.7319 87.043 82.9022 90.1956C81.5778 95.2311 76.7867 98.68 71.5911 97.9467C69.8697 97.7037 68.0193 97.4148 66.04 97.08C65.8711 97.0533 65.726 97.1007 65.6045 97.2222C55.3956 107.827 44.8178 119.591 38.96 132.862ZM76.3245 67.3333C75.3615 66.8622 74.1645 66.5244 72.7334 66.32C68.0519 65.6504 63.2578 64.9067 58.3511 64.0889C57.0563 63.8726 55.8771 63.8385 54.8134 63.9867C51.8534 64.4044 49.0178 66.9689 50.3689 70.1778C51.4622 72.7733 54.0445 73.8178 56.7956 74.2222C61.2785 74.8859 66.1097 75.6356 71.2889 76.4711C73.7956 76.8711 75.9956 76.8089 78.0045 75.2178C81.1867 72.6933 79.36 68.8089 76.3245 67.3333ZM76.59 87.7436C76.7391 86.7802 76.4995 85.7971 75.9237 85.0105C75.348 84.2238 74.4834 83.6981 73.52 83.549L62.7769 81.8859C62.2999 81.812 61.813 81.8329 61.344 81.9472C60.8751 82.0615 60.4333 82.267 60.0437 82.5521C59.6542 82.8372 59.3247 83.1962 59.0739 83.6086C58.8232 84.021 58.6561 84.4788 58.5822 84.9558L58.5034 85.4653C58.3543 86.4287 58.5939 87.4118 59.1697 88.1984C59.7454 88.9851 60.61 89.5108 61.5734 89.6599L72.3165 91.323C72.7935 91.3969 73.2804 91.376 73.7493 91.2617C74.2183 91.1474 74.6601 90.9419 75.0496 90.6568C75.4391 90.3717 75.7687 90.0127 76.0194 89.6003C76.2702 89.1879 76.4373 88.7301 76.5111 88.2531L76.59 87.7436Z" fill="#CB8A58"/>
<path d="M68.0044 140.68C67.9185 139.359 67.9392 137.982 68.0666 136.551C68.0814 136.367 67.997 136.276 67.8133 136.276C67.0222 136.276 66.0711 136.369 65.32 136.204C61.1777 135.293 61.9466 129.529 66.3111 129.596C67.2118 129.61 68.0992 129.613 68.9733 129.604C69.0452 129.603 69.1148 129.579 69.1717 129.535C69.2286 129.491 69.2697 129.429 69.2889 129.36C71.2933 122.009 76.1555 114.462 83.6844 111.849C91.7511 109.049 98.9555 112.289 104.244 118.604C105.03 119.544 105.447 120.428 105.498 121.258C105.711 124.72 101.373 125.978 99.3333 123.222C97.2489 120.409 94.4889 118.24 90.9911 117.658C83.6844 116.444 78.2577 123.342 76.2577 129.427C76.2222 129.539 76.2637 129.596 76.3822 129.596C78.9274 129.604 81.3259 129.61 83.5778 129.613C88.0711 129.618 88.12 136.271 83.5289 136.28C80.7407 136.286 77.9022 136.286 75.0133 136.28C74.8089 136.277 74.7037 136.379 74.6978 136.587L74.6222 140.733C74.6192 140.905 74.7052 140.993 74.88 140.996C77.2266 141.01 79.9452 141.006 83.0355 140.982C87.8 140.947 87.8266 147.702 83.1644 147.636C80.7289 147.597 78.3615 147.593 76.0622 147.622C76.0359 147.623 76.0101 147.63 75.9869 147.642C75.9637 147.655 75.9437 147.672 75.9286 147.693C75.9135 147.715 75.9036 147.739 75.8998 147.764C75.896 147.79 75.8983 147.816 75.9066 147.84C76.5348 149.822 77.3274 151.639 78.2844 153.289C81.1289 158.187 86.1111 161.933 91.8533 160.484C95.3066 159.613 98.3422 156.867 100.276 153.764C101.68 151.507 104.889 151.689 106.089 154.004C106.987 155.738 106.08 157.236 105.004 158.676C102.824 161.591 100.49 163.744 98.0044 165.133C89.8133 169.707 81.1911 167.342 75.2533 160.484C72.1378 156.889 70.2089 152.582 69 147.844C68.9615 147.693 68.8637 147.616 68.7066 147.613C67.8681 147.599 67.0074 147.603 66.1244 147.627C63.88 147.684 62.1778 146.071 62.4755 143.773C62.8311 141.071 65.56 140.867 67.6577 141.027C67.9066 141.044 68.0222 140.929 68.0044 140.68Z" fill="#CB8A58"/>
</svg>
