<svg width="200" height="200" viewBox="0 0 200 200" fill="none" xmlns="http://www.w3.org/2000/svg">
<g clip-path="url(#clip0_1_103)">
<path d="M0 0H200V200H98.1911C112.458 198.591 122.738 188.342 125.133 174.333C125.335 173.154 125.47 170.864 125.538 167.462C125.769 155.821 129.495 145.164 136.716 135.493C138.973 132.467 142.284 129.227 144.778 126C165.969 98.5689 160.404 59.5333 132.991 38.7689C117.302 26.8889 96.5822 22.9822 77.5511 29.0089C54.7111 36.2444 37.2533 56.3022 34.3244 80.3867C32.3733 96.4667 36.6133 112.729 46.5067 125.662C48.9822 128.902 51.9689 131.8 54.4089 135.062C61.8133 144.953 65.7007 155.833 66.0711 167.702C66.1926 171.607 66.3289 173.966 66.48 174.778C67.8222 181.907 70.9304 187.751 75.8044 192.311C80.5452 196.747 86.3541 199.31 93.2311 200H0V0ZM83.9333 7.21778C83.9333 5.3483 83.1907 3.55538 81.8688 2.23346C80.5468 0.911538 78.7539 0.168889 76.8844 0.168889C75.9588 0.168889 75.0422 0.351214 74.187 0.705454C73.3317 1.05969 72.5547 1.57891 71.9001 2.23346C71.2456 2.88801 70.7264 3.66507 70.3721 4.52028C70.0179 5.3755 69.8356 6.2921 69.8356 7.21778C69.8356 8.14345 70.0179 9.06006 70.3721 9.91527C70.7264 10.7705 71.2456 11.5475 71.9001 12.2021C72.5547 12.8566 73.3317 13.3759 74.187 13.7301C75.0422 14.0843 75.9588 14.2667 76.8844 14.2667C78.7539 14.2667 80.5468 13.524 81.8688 12.2021C83.1907 10.8802 83.9333 9.08726 83.9333 7.21778ZM157.449 17.0711C157.449 15.1969 156.704 13.3995 155.379 12.0742C154.054 10.749 152.256 10.0044 150.382 10.0044C148.508 10.0044 146.711 10.749 145.385 12.0742C144.06 13.3995 143.316 15.1969 143.316 17.0711C143.316 18.9453 144.06 20.7427 145.385 22.068C146.711 23.3933 148.508 24.1378 150.382 24.1378C152.256 24.1378 154.054 23.3933 155.379 22.068C156.704 20.7427 157.449 18.9453 157.449 17.0711ZM24.5156 60.8222C24.5156 59.3141 24.2185 57.8207 23.6414 56.4273C23.0642 55.034 22.2183 53.7679 21.1518 52.7015C20.0854 51.6351 18.8194 50.7891 17.426 50.212C16.0327 49.6348 14.5393 49.3378 13.0311 49.3378C9.98525 49.3378 7.06413 50.5477 4.91038 52.7015C2.75663 54.8552 1.54667 57.7764 1.54667 60.8222C1.54667 63.8681 2.75663 66.7892 4.91038 68.943C7.06413 71.0967 9.98525 72.3067 13.0311 72.3067C14.5393 72.3067 16.0327 72.0096 17.426 71.4325C18.8194 70.8553 20.0854 70.0094 21.1518 68.943C22.2183 67.8765 23.0642 66.6105 23.6414 65.2171C24.2185 63.8238 24.5156 62.3304 24.5156 60.8222ZM196.698 79.8089C196.698 76.7654 195.489 73.8465 193.337 71.6944C191.185 69.5424 188.266 68.3333 185.222 68.3333C182.179 68.3333 179.26 69.5424 177.108 71.6944C174.956 73.8465 173.747 76.7654 173.747 79.8089C173.747 82.8524 174.956 85.7712 177.108 87.9233C179.26 90.0754 182.179 91.2844 185.222 91.2844C188.266 91.2844 191.185 90.0754 193.337 87.9233C195.489 85.7712 196.698 82.8524 196.698 79.8089ZM27.1556 135.773C27.1556 134.848 26.9732 133.931 26.619 133.076C26.2648 132.221 25.7455 131.444 25.091 130.789C24.4364 130.134 23.6594 129.615 22.8042 129.261C21.9489 128.907 21.0323 128.724 20.1067 128.724C19.181 128.724 18.2644 128.907 17.4092 129.261C16.554 129.615 15.7769 130.134 15.1224 130.789C14.4678 131.444 13.9486 132.221 13.5943 133.076C13.2401 133.931 13.0578 134.848 13.0578 135.773C13.0578 137.643 13.8004 139.436 15.1224 140.758C16.4443 142.08 18.2372 142.822 20.1067 142.822C21.9761 142.822 23.7691 142.08 25.091 140.758C26.4129 139.436 27.1556 137.643 27.1556 135.773ZM171.56 137.898C171.56 136.027 170.817 134.233 169.494 132.91C168.171 131.588 166.377 130.844 164.507 130.844C162.636 130.844 160.842 131.588 159.519 132.91C158.196 134.233 157.453 136.027 157.453 137.898C157.453 139.768 158.196 141.562 159.519 142.885C160.842 144.208 162.636 144.951 164.507 144.951C166.377 144.951 168.171 144.208 169.494 142.885C170.817 141.562 171.56 139.768 171.56 137.898Z" fill="white"/>
<path d="M76.8845 14.2667C80.7775 14.2667 83.9333 11.1108 83.9333 7.21777C83.9333 3.32478 80.7775 0.168884 76.8845 0.168884C72.9915 0.168884 69.8356 3.32478 69.8356 7.21777C69.8356 11.1108 72.9915 14.2667 76.8845 14.2667Z" fill="#CB8A58"/>
<path d="M150.382 24.1378C154.285 24.1378 157.449 20.9739 157.449 17.0711C157.449 13.1683 154.285 10.0045 150.382 10.0045C146.479 10.0045 143.316 13.1683 143.316 17.0711C143.316 20.9739 146.479 24.1378 150.382 24.1378Z" fill="#CB8A58"/>
<path d="M98.1911 200H93.2311C86.3541 199.31 80.5452 196.747 75.8044 192.311C70.9304 187.751 67.8222 181.907 66.48 174.778C66.3289 173.966 66.1926 171.607 66.0711 167.702C65.7007 155.833 61.8133 144.953 54.4089 135.062C51.9689 131.8 48.9822 128.902 46.5067 125.662C36.6133 112.729 32.3733 96.4667 34.3244 80.3867C37.2533 56.3022 54.7111 36.2444 77.5511 29.0089C96.5822 22.9822 117.302 26.8889 132.991 38.7689C160.404 59.5333 165.969 98.5689 144.778 126C142.284 129.227 138.973 132.467 136.716 135.493C129.495 145.164 125.769 155.821 125.538 167.462C125.47 170.864 125.335 173.154 125.133 174.333C122.738 188.342 112.458 198.591 98.1911 200ZM61.9822 42.1378C36.1289 61.3511 31.0933 96.4933 49.8755 122.382C50.5155 123.265 52.0015 125.001 54.3333 127.591C64.4889 138.867 70.2444 152.516 70.8178 167.676C70.8207 167.744 70.8548 167.787 70.92 167.804C87.4504 172.936 103.984 172.95 120.52 167.844C120.686 167.794 120.772 167.683 120.778 167.511C121.193 154.424 125.307 142.719 133.12 132.396C135.698 128.991 139.342 125.516 142.022 121.818C161.729 94.6089 154.058 57.4222 125.982 39.5911C106.338 27.12 80.7378 28.2 61.9822 42.1378Z" fill="#CB8A58"/>
<path d="M13.0311 72.3067C19.3738 72.3067 24.5156 67.1649 24.5156 60.8222C24.5156 54.4795 19.3738 49.3378 13.0311 49.3378C6.68845 49.3378 1.54669 54.4795 1.54669 60.8222C1.54669 67.1649 6.68845 72.3067 13.0311 72.3067Z" fill="#CB8A58"/>
<path d="M185.222 91.2844C191.56 91.2844 196.698 86.1466 196.698 79.8089C196.698 73.4711 191.56 68.3333 185.222 68.3333C178.884 68.3333 173.747 73.4711 173.747 79.8089C173.747 86.1466 178.884 91.2844 185.222 91.2844Z" fill="#CB8A58"/>
<path d="M114.142 95.4089C108.742 97.7778 104.431 102.644 100.578 107.378C100.546 107.417 100.505 107.448 100.459 107.468C100.412 107.488 100.362 107.496 100.312 107.492C100.261 107.488 100.213 107.472 100.17 107.445C100.127 107.418 100.092 107.381 100.067 107.338C95.8444 100.022 98.6711 91.2 104.129 85.4089C108.076 81.2178 112.569 79.2044 118.356 77.4222C122.169 76.2459 125.578 74.9896 128.582 73.6533C129.299 73.3333 130.133 73.2844 131.084 73.5067C133.302 74.0267 134.662 76.2178 134.862 78.3733C136.124 91.9644 131.444 112.942 114.604 114.631C111.449 114.948 108.344 114.102 105.289 112.093C105.15 111.999 105.04 112.027 104.96 112.178C102.456 116.883 100.825 121.901 100.067 127.231C99.2578 132.907 99.3333 139.449 99.5466 145.058C99.5763 145.884 99.4785 146.493 99.2533 146.884C97.96 149.098 94.9466 148.196 94.8533 145.658C94.7615 143.092 94.7348 140.659 94.7733 138.36C94.8118 135.972 94.6666 133.868 94.3378 132.049C93.4755 127.296 91.3896 122.474 88.08 117.582C87.9585 117.404 87.8148 117.384 87.6489 117.52C85.1541 119.579 82.44 120.587 79.5066 120.542C74.2326 120.462 69.8785 118.459 66.4444 114.533C60.9555 108.267 57.9066 99.2489 57.5778 90.8222C57.4533 87.6311 60.1466 85.6356 63.2489 86.44C66.6118 87.3082 69.7689 87.963 72.72 88.4044C75.9822 88.8933 78.7244 89.6252 80.9466 90.6C86.9155 93.2178 91.9822 98.5644 92.8133 105.111C93.1363 107.662 92.7985 110.025 91.8 112.2C91.7052 112.404 91.5852 112.421 91.44 112.249C88.4755 108.707 84.4666 104.987 80.1911 102.96C79.3822 102.578 79.3141 102.683 79.9866 103.276C84.277 107.056 88.1481 111.138 91.6 115.52C93.2652 117.636 94.7763 120.016 96.1333 122.662C96.2429 122.873 96.3303 122.864 96.3955 122.636C99.3289 112.413 106.231 102.782 114.231 95.5467C114.489 95.3156 114.459 95.2696 114.142 95.4089Z" fill="#CB8A58"/>
<path d="M20.1067 142.822C23.9997 142.822 27.1556 139.666 27.1556 135.773C27.1556 131.88 23.9997 128.724 20.1067 128.724C16.2137 128.724 13.0578 131.88 13.0578 135.773C13.0578 139.666 16.2137 142.822 20.1067 142.822Z" fill="#CB8A58"/>
<path d="M164.507 144.951C168.402 144.951 171.56 141.793 171.56 137.898C171.56 134.002 168.402 130.844 164.507 130.844C160.611 130.844 157.453 134.002 157.453 137.898C157.453 141.793 160.611 144.951 164.507 144.951Z" fill="#CB8A58"/>
</g>
<defs>
<clipPath id="clip0_1_103">
<rect width="200" height="200" fill="white"/>
</clipPath>
</defs>
</svg>
