<svg width="200" height="200" viewBox="0 0 200 200" fill="none" xmlns="http://www.w3.org/2000/svg">
<path d="M200 72.816V76.64V89.288V90.4C199.488 93.576 196.752 94.536 194.328 92.72C192.931 91.68 191.544 90.7014 190.168 89.784C190.127 89.7586 190.081 89.7444 190.033 89.7429C189.985 89.7413 189.937 89.7525 189.895 89.7752C189.853 89.798 189.817 89.8315 189.792 89.8724C189.767 89.9133 189.753 89.9601 189.752 90.008V174.504C189.752 174.573 189.778 174.639 189.824 174.688C189.87 174.737 189.933 174.766 190 174.768C192.408 174.904 196.616 174.032 196.608 177.992C196.587 183.032 196.581 188.211 196.592 193.528C196.593 193.957 196.509 194.383 196.346 194.78C196.182 195.176 195.942 195.537 195.639 195.841C195.336 196.145 194.975 196.386 194.579 196.551C194.182 196.715 193.757 196.8 193.328 196.8C128.677 196.821 66.4027 196.813 6.504 196.776C4.528 196.776 3.24 195.08 3.256 193.208C3.28267 188.28 3.288 183.323 3.272 178.336C3.256 174.104 7.152 174.912 9.872 174.792C10.1333 174.781 10.264 174.645 10.264 174.384L10.232 89.816C10.232 89.7825 10.2229 89.7496 10.2056 89.7209C10.1883 89.6922 10.1635 89.6687 10.1339 89.6531C10.1042 89.6374 10.0709 89.6302 10.0374 89.6321C10.004 89.6341 9.97165 89.6451 9.944 89.664C7.44 91.36 2.04 96.8 0 90.992V71.768C0.394667 70.8347 0.992 70.096 1.792 69.552C33.648 47.9574 65.4853 26.3387 97.304 4.69603C99.32 3.32803 100.352 3.14403 102.504 4.60803C134.621 26.4534 166.744 48.2907 198.872 70.12C199.533 70.568 199.909 71.4667 200 72.816ZM98.096 21.304C99.12 20.6 100.632 20.488 101.68 21.208C132.144 42.1307 162.637 63.08 193.16 84.056C193.191 84.0779 193.227 84.0909 193.265 84.0936C193.303 84.0963 193.341 84.0886 193.375 84.0713C193.409 84.054 193.437 84.0277 193.457 83.9954C193.477 83.9631 193.488 83.926 193.488 83.888L193.432 74.528C193.432 74.4217 193.406 74.3169 193.358 74.2223C193.309 74.1277 193.238 74.0461 193.152 73.984L100.36 10.92C100.099 10.744 99.84 10.744 99.584 10.92L6.888 73.928C6.568 74.1467 6.408 74.448 6.408 74.832L6.4 83.64C6.4 84.0827 6.58133 84.1787 6.944 83.928C37.3173 63.0587 67.7013 42.184 98.096 21.304ZM81.488 129.664C93.856 132.816 97.344 147.768 88.568 156.592C88.5259 156.634 88.4969 156.686 88.4844 156.744C88.472 156.802 88.4766 156.862 88.4979 156.917C88.5191 156.973 88.556 157.02 88.6039 157.055C88.6519 157.09 88.7089 157.109 88.768 157.112L89.36 157.136C89.4124 157.139 89.465 157.126 89.5116 157.099C89.5583 157.072 89.5972 157.032 89.624 156.984C92.6747 151.901 97.136 149.219 103.008 148.936C103.323 148.925 103.36 148.819 103.12 148.616C98.464 144.755 96.1173 139.915 96.08 134.096C95.976 117.232 116.4 108.832 128.128 120.792C128.432 121.101 128.784 121.171 129.184 121C131.317 120.067 133.781 119.653 136.576 119.76C136.624 119.763 136.671 119.751 136.711 119.725C136.752 119.699 136.782 119.661 136.799 119.616C136.816 119.571 136.819 119.522 136.806 119.476C136.793 119.43 136.766 119.389 136.728 119.36C125.672 110.16 127.992 92.912 141.344 87.352C152.544 82.68 164.576 89.792 166.848 101.2C168.168 107.864 165.664 114.848 160.344 119.136C159.848 119.536 159.917 119.731 160.552 119.72C168.208 119.576 175.072 124.04 177.472 131.24C178.176 133.347 178.509 136.304 178.472 140.112C178.376 151.392 178.365 162.891 178.44 174.608C178.44 174.741 178.504 174.808 178.632 174.808L183.192 174.768C183.261 174.763 183.296 174.725 183.296 174.656L183.304 85.56C183.304 85.4164 183.27 85.2752 183.204 85.1485C183.139 85.0218 183.044 84.9132 182.928 84.832L100.16 27.968C100.104 27.93 100.038 27.9097 99.9706 27.9097C99.9035 27.9097 99.8384 27.93 99.784 27.968L16.856 84.952C16.777 85.0065 16.7124 85.0794 16.6678 85.1644C16.6232 85.2494 16.5999 85.344 16.6 85.44L16.592 174.64C16.592 174.741 16.6427 174.792 16.744 174.792L21.288 174.784C21.4107 174.784 21.4747 174.723 21.48 174.6C21.5387 161.741 21.5467 149.357 21.504 137.448C21.464 127.2 29.04 119.576 39.392 119.712C39.9893 119.723 40.0533 119.541 39.584 119.168C30.04 111.672 30.76 97.352 39.84 90.016C49.456 82.248 64.112 86.08 68.824 97.584C71.968 105.272 69.768 113.872 63.36 119.184C62.9493 119.531 63.0107 119.701 63.544 119.696C70.4827 119.675 75.712 122.613 79.232 128.512C79.808 129.472 80.512 129.416 81.488 129.664ZM63.816 104.72C63.816 101.455 62.5188 98.3231 60.2099 96.0141C57.901 93.7052 54.7693 92.408 51.504 92.408C48.2387 92.408 45.1071 93.7052 42.7981 96.0141C40.4892 98.3231 39.192 101.455 39.192 104.72C39.192 107.985 40.4892 111.117 42.7981 113.426C45.1071 115.735 48.2387 117.032 51.504 117.032C54.7693 117.032 57.901 115.735 60.2099 113.426C62.5188 111.117 63.816 107.985 63.816 104.72ZM160.744 104.72C160.744 101.457 159.448 98.3272 157.14 96.0198C154.833 93.7123 151.703 92.416 148.44 92.416C146.824 92.416 145.224 92.7343 143.731 93.3526C142.239 93.971 140.882 94.8773 139.74 96.0198C138.597 97.1623 137.691 98.5187 137.073 100.011C136.454 101.504 136.136 103.104 136.136 104.72C136.136 106.336 136.454 107.936 137.073 109.429C137.691 110.921 138.597 112.278 139.74 113.42C140.882 114.563 142.239 115.469 143.731 116.087C145.224 116.706 146.824 117.024 148.44 117.024C151.703 117.024 154.833 115.728 157.14 113.42C159.448 111.113 160.744 107.983 160.744 104.72ZM127.104 133.92C127.104 130.657 125.808 127.527 123.5 125.22C121.193 122.912 118.063 121.616 114.8 121.616C111.537 121.616 108.407 122.912 106.1 125.22C103.792 127.527 102.496 130.657 102.496 133.92C102.496 137.183 103.792 140.313 106.1 142.62C108.407 144.928 111.537 146.224 114.8 146.224C118.063 146.224 121.193 144.928 123.5 142.62C125.808 140.313 127.104 137.183 127.104 133.92ZM132.296 127.144C135.12 134.824 133.04 143.208 126.656 148.448C126.229 148.8 126.293 148.981 126.848 148.992C133.56 149.104 139.256 153.72 141.224 159.832C142.536 163.896 141.88 168.752 142.056 173.144C142.058 173.223 142.092 173.299 142.15 173.354C142.208 173.409 142.287 173.44 142.368 173.44L171.72 173.448C171.805 173.448 171.886 173.414 171.946 173.354C172.006 173.294 172.04 173.213 172.04 173.128C171.949 162.851 171.963 152.064 172.08 140.768C172.117 136.917 171.701 134.037 170.832 132.128C169.035 128.165 165.459 126.157 160.104 126.104C152.669 126.035 145.021 126.024 137.16 126.072C135.677 126.083 134.181 126.221 132.672 126.488C132.601 126.501 132.534 126.53 132.476 126.571C132.417 126.613 132.368 126.667 132.332 126.729C132.296 126.791 132.275 126.861 132.268 126.933C132.262 127.004 132.272 127.076 132.296 127.144ZM66.296 156.536C58.112 147.944 60.616 134.472 71.968 130.096C72.0283 130.073 72.0819 130.036 72.124 129.987C72.1661 129.939 72.1952 129.88 72.2087 129.817C72.2223 129.754 72.2198 129.689 72.2015 129.627C72.1832 129.566 72.1497 129.509 72.104 129.464C69.8587 127.245 67.1387 126.149 63.944 126.176C56.1787 126.24 48.1973 126.229 40 126.144C35.104 126.088 31.192 127.792 29.016 132.232C28.28 133.731 27.9253 135.853 27.952 138.6C28.0587 149.928 28.064 161.373 27.968 172.936C27.968 173.277 28.1387 173.448 28.48 173.448L54.184 173.44C54.4773 173.44 54.624 173.293 54.624 173C54.624 171.064 54.44 169 54.944 167.16C56.5067 161.485 60.2427 158.099 66.152 157C66.488 156.936 66.536 156.781 66.296 156.536ZM87.056 145.08C87.056 142.545 86.0488 140.113 84.2559 138.32C82.4631 136.527 80.0315 135.52 77.496 135.52C74.9605 135.52 72.5289 136.527 70.7361 138.32C68.9432 140.113 67.936 142.545 67.936 145.08C67.936 147.616 68.9432 150.047 70.7361 151.84C72.5289 153.633 74.9605 154.64 77.496 154.64C80.0315 154.64 82.4631 153.633 84.2559 151.84C86.0488 150.047 87.056 147.616 87.056 145.08ZM135.336 163.464C134.944 159.352 131.208 155.432 126.648 155.432C118.488 155.427 110.616 155.427 103.032 155.432C100.275 155.432 97.8133 156.773 95.648 159.456C95.4453 159.707 95.4667 159.936 95.712 160.144C98.576 162.608 100.472 166.352 100.4 170.2C100.384 171.155 100.397 172.123 100.44 173.104C100.444 173.195 100.483 173.28 100.549 173.343C100.614 173.405 100.701 173.44 100.792 173.44H134.992C135.291 173.44 135.445 173.291 135.456 172.992C135.605 169.008 135.565 165.832 135.336 163.464ZM61.344 173.448H93.648C93.7392 173.448 93.8267 173.412 93.8912 173.347C93.9558 173.283 93.992 173.195 93.992 173.104V170.36C93.992 168.497 93.2334 166.711 91.8832 165.393C90.5329 164.076 88.7016 163.336 86.792 163.336H68.2C66.2904 163.336 64.4591 164.076 63.1088 165.393C61.7586 166.711 61 168.497 61 170.36V173.104C61 173.195 61.0362 173.283 61.1008 173.347C61.1653 173.412 61.2528 173.448 61.344 173.448ZM190.184 181.456C190.184 181.397 190.16 181.34 190.118 181.298C190.076 181.256 190.019 181.232 189.96 181.232H9.976C9.94658 181.232 9.91746 181.238 9.89028 181.249C9.8631 181.26 9.83841 181.277 9.81761 181.298C9.79681 181.318 9.78031 181.343 9.76905 181.37C9.75779 181.397 9.752 181.427 9.752 181.456V190.048C9.752 190.077 9.75779 190.107 9.76905 190.134C9.78031 190.161 9.79681 190.186 9.81761 190.206C9.83841 190.227 9.8631 190.244 9.89028 190.255C9.91746 190.266 9.94658 190.272 9.976 190.272H189.96C190.019 190.272 190.076 190.248 190.118 190.206C190.16 190.164 190.184 190.107 190.184 190.048V181.456Z" fill="#CB8A58"/>
<path d="M101.68 21.208C100.632 20.488 99.12 20.6 98.096 21.304C67.7013 42.184 37.3173 63.0587 6.944 83.928C6.58134 84.1787 6.4 84.0827 6.4 83.64L6.408 74.832C6.408 74.448 6.568 74.1467 6.888 73.928L99.584 10.92C99.84 10.744 100.099 10.744 100.36 10.92L193.152 73.984C193.238 74.0461 193.309 74.1277 193.358 74.2223C193.406 74.3169 193.432 74.4217 193.432 74.528L193.488 83.888C193.488 83.926 193.477 83.9631 193.457 83.9954C193.437 84.0277 193.409 84.054 193.375 84.0713C193.341 84.0886 193.303 84.0963 193.265 84.0936C193.227 84.0909 193.191 84.0779 193.16 84.056C162.637 63.08 132.144 42.1307 101.68 21.208Z" fill="white"/>
<path d="M100.376 55.616C104.515 52.2987 108.989 51.5653 113.8 53.416C118.424 55.192 121.648 59.744 121.864 64.768C122.064 69.336 119.968 73.048 116.568 76.168C111.528 80.8027 106.883 85.4507 102.632 90.112C101.272 91.608 99.104 91.904 97.624 90.4C92.7653 85.4773 88.008 80.728 83.352 76.152C81.1813 74.0187 79.72 72.0187 78.968 70.152C76.6 64.288 78.96 57.328 84.488 54.248C89.6613 51.3573 94.688 51.816 99.568 55.624C99.8347 55.832 100.104 55.8293 100.376 55.616ZM106.112 59.536C102.36 61.152 101.304 66.984 96.408 61.6C89.688 54.2 80.016 63.592 86.752 70.384C91.104 74.7733 95.4107 79.088 99.672 83.328C99.7485 83.4042 99.852 83.447 99.96 83.447C100.068 83.447 100.172 83.4042 100.248 83.328C104.253 79.2373 108.429 75.056 112.776 70.784C115.52 68.088 116.6 64.488 113.936 61.304C111.835 58.792 109.227 58.2027 106.112 59.536Z" fill="#CB8A58"/>
<path d="M96.408 61.6C101.304 66.984 102.36 61.152 106.112 59.536C109.227 58.2027 111.835 58.792 113.936 61.304C116.6 64.488 115.52 68.088 112.776 70.784C108.429 75.056 104.253 79.2373 100.248 83.328C100.172 83.4042 100.068 83.447 99.96 83.447C99.852 83.447 99.7485 83.4042 99.672 83.328C95.4107 79.088 91.104 74.7733 86.752 70.384C80.016 63.592 89.688 54.2 96.408 61.6Z" fill="white"/>
<path d="M51.504 117.032C58.3037 117.032 63.816 111.52 63.816 104.72C63.816 97.9203 58.3037 92.408 51.504 92.408C44.7043 92.408 39.192 97.9203 39.192 104.72C39.192 111.52 44.7043 117.032 51.504 117.032Z" fill="white"/>
<path d="M148.44 117.024C155.235 117.024 160.744 111.515 160.744 104.72C160.744 97.9247 155.235 92.416 148.44 92.416C141.645 92.416 136.136 97.9247 136.136 104.72C136.136 111.515 141.645 117.024 148.44 117.024Z" fill="white"/>
<path d="M114.8 146.224C121.595 146.224 127.104 140.715 127.104 133.92C127.104 127.125 121.595 121.616 114.8 121.616C108.005 121.616 102.496 127.125 102.496 133.92C102.496 140.715 108.005 146.224 114.8 146.224Z" fill="white"/>
<path d="M126.656 148.448C133.04 143.208 135.12 134.824 132.296 127.144C132.272 127.076 132.262 127.004 132.268 126.933C132.275 126.861 132.296 126.791 132.332 126.729C132.368 126.667 132.417 126.613 132.476 126.571C132.534 126.529 132.601 126.501 132.672 126.488C134.181 126.221 135.677 126.083 137.16 126.072C145.021 126.024 152.669 126.035 160.104 126.104C165.459 126.157 169.035 128.165 170.832 132.128C171.701 134.037 172.117 136.917 172.08 140.768C171.963 152.064 171.949 162.851 172.04 173.128C172.04 173.213 172.006 173.294 171.946 173.354C171.886 173.414 171.805 173.448 171.72 173.448L142.368 173.44C142.287 173.44 142.208 173.409 142.15 173.354C142.092 173.299 142.058 173.223 142.056 173.144C141.88 168.752 142.536 163.896 141.224 159.832C139.256 153.72 133.56 149.104 126.848 148.992C126.293 148.981 126.229 148.8 126.656 148.448Z" fill="white"/>
<path d="M71.968 130.096C60.616 134.472 58.112 147.944 66.296 156.536C66.536 156.781 66.488 156.936 66.152 157C60.2427 158.099 56.5067 161.485 54.944 167.16C54.44 169 54.624 171.064 54.624 173C54.624 173.293 54.4773 173.44 54.184 173.44L28.48 173.448C28.1387 173.448 27.968 173.277 27.968 172.936C28.064 161.373 28.0587 149.928 27.952 138.6C27.9253 135.853 28.28 133.731 29.016 132.232C31.192 127.792 35.104 126.088 40 126.144C48.1973 126.229 56.1787 126.24 63.944 126.176C67.1387 126.149 69.8587 127.245 72.104 129.464C72.1497 129.509 72.1832 129.565 72.2015 129.627C72.2198 129.689 72.2223 129.754 72.2087 129.817C72.1952 129.88 72.166 129.939 72.124 129.987C72.0819 130.036 72.0283 130.073 71.968 130.096Z" fill="white"/>
<path d="M77.496 154.64C82.7758 154.64 87.056 150.36 87.056 145.08C87.056 139.8 82.7758 135.52 77.496 135.52C72.2162 135.52 67.936 139.8 67.936 145.08C67.936 150.36 72.2162 154.64 77.496 154.64Z" fill="white"/>
<path d="M126.648 155.432C131.208 155.432 134.944 159.352 135.336 163.464C135.565 165.832 135.605 169.008 135.456 172.992C135.445 173.291 135.291 173.44 134.992 173.44H100.792C100.701 173.44 100.614 173.405 100.549 173.343C100.483 173.28 100.444 173.195 100.44 173.104C100.397 172.123 100.384 171.155 100.4 170.2C100.472 166.352 98.576 162.608 95.712 160.144C95.4667 159.936 95.4453 159.707 95.648 159.456C97.8133 156.773 100.275 155.432 103.032 155.432C110.616 155.427 118.488 155.427 126.648 155.432Z" fill="white"/>
<path d="M61.344 173.448C61.2528 173.448 61.1653 173.412 61.1008 173.347C61.0362 173.283 61 173.195 61 173.104V170.36C61 168.497 61.7586 166.711 63.1088 165.393C64.4591 164.076 66.2904 163.336 68.2 163.336H86.792C88.7016 163.336 90.5329 164.076 91.8832 165.393C93.2334 166.711 93.992 168.497 93.992 170.36V173.104C93.992 173.195 93.9558 173.283 93.8912 173.347C93.8267 173.412 93.7392 173.448 93.648 173.448H61.344Z" fill="white"/>
</svg>
