<svg width="200" height="200" viewBox="0 0 200 200" fill="none" xmlns="http://www.w3.org/2000/svg">
<path d="M29.7955 0H170.236C173.566 0.379259 176.436 1.35704 178.844 2.93333C183.067 5.69185 185.784 9.42815 186.996 14.1422C187.476 16.0178 187.714 18.7022 187.711 22.1956C187.658 75.7481 187.644 128.579 187.671 180.689C187.676 189.449 181.991 196.831 173.551 199.196C171.96 199.643 169.72 199.865 166.831 199.862C123.222 199.83 78.3437 199.828 32.1955 199.858C29.923 199.861 27.957 199.643 26.2978 199.204C19.5067 197.413 14.2178 191.809 12.7289 184.978C12.397 183.449 12.2326 181.258 12.2355 178.404C12.3007 125.047 12.3081 71.9274 12.2578 19.0444C12.2489 8.94222 19.8178 1.01778 29.7955 0ZM178.582 19.7289C178.604 13.8533 174.667 9.12 168.556 9.12C123.376 9.11111 78.1955 9.10963 33.0133 9.11556C30.7644 9.11556 29.1437 9.28 28.1511 9.60889C24.1733 10.9378 21.3555 14.6933 21.3555 18.8889C21.3555 28.0267 21.3555 37.1467 21.3555 46.2489C21.3555 46.267 21.3591 46.2849 21.366 46.3016C21.373 46.3183 21.3831 46.3335 21.3959 46.3463C21.4087 46.3591 21.4239 46.3693 21.4406 46.3762C21.4573 46.3831 21.4752 46.3867 21.4933 46.3867H178.293C178.486 46.3867 178.581 46.2904 178.578 46.0978C178.548 37.7007 178.55 28.9111 178.582 19.7289ZM21.3555 180.68C21.3555 185.04 23.8978 188.676 27.9822 190.236C28.9748 190.615 30.9837 190.804 34.0089 190.804C78.4711 190.769 123.031 190.766 167.689 190.796C169.179 190.799 170.474 190.64 171.573 190.32C175.609 189.147 178.556 185.169 178.556 180.964C178.573 138.194 178.57 96.4237 178.547 55.6533C178.547 55.6335 178.543 55.6138 178.535 55.5955C178.528 55.5772 178.517 55.5605 178.504 55.5465C178.49 55.5324 178.474 55.5213 178.456 55.5137C178.438 55.5061 178.419 55.5022 178.4 55.5022H21.4889C21.4714 55.5022 21.454 55.5057 21.4379 55.5124C21.4217 55.5191 21.407 55.5289 21.3946 55.5413C21.3822 55.5537 21.3724 55.5684 21.3657 55.5845C21.359 55.6007 21.3555 55.618 21.3555 55.6356C21.3555 97.2918 21.3555 138.973 21.3555 180.68Z" fill="#CB8A58"/>
<path d="M71.0133 97.7333C71.0133 98.9392 70.5343 100.096 69.6817 100.948C68.829 101.801 67.6725 102.28 66.4667 102.28H37.2933C36.0875 102.28 34.931 101.801 34.0784 100.948C33.2257 100.096 32.7467 98.9392 32.7467 97.7333V73.3244C32.7467 72.1186 33.2257 70.9621 34.0784 70.1095C34.931 69.2568 36.0875 68.7778 37.2933 68.7778H66.4667C67.6725 68.7778 68.829 69.2568 69.6817 70.1095C70.5343 70.9621 71.0133 72.1186 71.0133 73.3244V97.7333ZM61.92 78C61.92 77.9564 61.9027 77.9146 61.8718 77.8837C61.841 77.8529 61.7992 77.8356 61.7556 77.8356H41.9956C41.9519 77.8356 41.9101 77.8529 41.8793 77.8837C41.8484 77.9146 41.8311 77.9564 41.8311 78V92.9956C41.8311 93.0392 41.8484 93.081 41.8793 93.1118C41.9101 93.1427 41.9519 93.16 41.9956 93.16H61.7556C61.7992 93.16 61.841 93.1427 61.8718 93.1118C61.9027 93.081 61.92 93.0392 61.92 92.9956V78Z" fill="#CB8A58"/>
<path d="M119.132 97.6688C119.134 98.8829 118.654 100.048 117.797 100.908C116.94 101.768 115.777 102.252 114.563 102.255L85.4159 102.305C84.2018 102.308 83.0366 101.827 82.1766 100.97C81.3166 100.113 80.8323 98.9497 80.8302 97.7356L80.7877 73.3889C80.7856 72.1749 81.2659 71.0096 82.1229 70.1497C82.9799 69.2897 84.1434 68.8053 85.3575 68.8032L114.504 68.7523C115.718 68.7502 116.883 69.2305 117.743 70.0875C118.603 70.9445 119.088 72.108 119.09 73.3221L119.132 97.6688ZM110.013 78.0177C110.013 77.9694 109.994 77.9231 109.96 77.8889C109.926 77.8547 109.879 77.8355 109.831 77.8355H90.0889C90.0406 77.8355 89.9942 77.8547 89.96 77.8889C89.9259 77.9231 89.9067 77.9694 89.9067 78.0177V92.9777C89.9067 93.0017 89.9114 93.0254 89.9205 93.0475C89.9297 93.0696 89.9431 93.0897 89.96 93.1066C89.977 93.1235 89.9971 93.1369 90.0192 93.1461C90.0413 93.1553 90.065 93.16 90.0889 93.16H109.831C109.855 93.16 109.879 93.1553 109.901 93.1461C109.923 93.1369 109.943 93.1235 109.96 93.1066C109.977 93.0897 109.99 93.0696 109.999 93.0475C110.009 93.0254 110.013 93.0017 110.013 92.9777V78.0177Z" fill="#CB8A58"/>
<path d="M167.226 97.6643C167.228 98.8796 166.747 100.046 165.889 100.907C165.031 101.768 163.867 102.252 162.651 102.255L133.514 102.305C132.298 102.308 131.132 101.827 130.271 100.969C129.41 100.111 128.926 98.9464 128.924 97.7312L128.881 73.3934C128.879 72.1781 129.36 71.0118 130.217 70.151C131.075 69.2901 132.24 68.8053 133.455 68.8032L162.593 68.7523C163.808 68.7502 164.975 69.231 165.835 70.0888C166.696 70.9466 167.181 72.1113 167.183 73.3266L167.226 97.6643ZM158.111 77.9955C158.111 77.9745 158.107 77.9537 158.099 77.9343C158.091 77.9149 158.079 77.8972 158.064 77.8824C158.049 77.8675 158.032 77.8558 158.012 77.8477C157.993 77.8397 157.972 77.8355 157.951 77.8355H138.164C138.143 77.8355 138.123 77.8397 138.103 77.8477C138.084 77.8558 138.066 77.8675 138.051 77.8824C138.036 77.8972 138.025 77.9149 138.017 77.9343C138.009 77.9537 138.004 77.9745 138.004 77.9955V93C138.004 93.0424 138.021 93.0831 138.051 93.1131C138.081 93.1431 138.122 93.16 138.164 93.16H157.951C157.994 93.16 158.034 93.1431 158.064 93.1131C158.094 93.0831 158.111 93.0424 158.111 93V77.9955Z" fill="#CB8A58"/>
<path d="M71.0133 137.498C71.0133 138.707 70.5329 139.867 69.6777 140.722C68.8226 141.577 67.6627 142.058 66.4533 142.058H37.3067C36.0973 142.058 34.9374 141.577 34.0823 140.722C33.2271 139.867 32.7467 138.707 32.7467 137.498V113.053C32.7467 111.844 33.2271 110.684 34.0823 109.829C34.9374 108.974 36.0973 108.493 37.3067 108.493H66.4533C67.6627 108.493 68.8226 108.974 69.6777 109.829C70.5329 110.684 71.0133 111.844 71.0133 113.053V137.498ZM61.92 117.76C61.92 117.722 61.905 117.686 61.8784 117.659C61.8517 117.633 61.8155 117.618 61.7778 117.618H41.9733C41.9356 117.618 41.8994 117.633 41.8728 117.659C41.8461 117.686 41.8311 117.722 41.8311 117.76V132.8C41.8311 132.838 41.8461 132.874 41.8728 132.901C41.8994 132.927 41.9356 132.942 41.9733 132.942H61.7778C61.8155 132.942 61.8517 132.927 61.8784 132.901C61.905 132.874 61.92 132.838 61.92 132.8V117.76Z" fill="#CB8A58"/>
<path d="M119.132 137.447C119.135 138.662 118.654 139.828 117.796 140.689C116.938 141.55 115.773 142.035 114.558 142.037L85.4205 142.088C84.8187 142.089 84.2226 141.971 83.6663 141.742C83.11 141.513 82.6042 141.176 82.178 140.751C81.7517 140.326 81.4133 139.822 81.1821 139.266C80.9508 138.711 80.8313 138.115 80.8302 137.513L80.7876 113.105C80.7855 111.889 81.2662 110.723 82.1241 109.862C82.9819 109.001 84.1466 108.516 85.3618 108.514L114.5 108.463C115.101 108.462 115.697 108.58 116.254 108.809C116.81 109.038 117.316 109.375 117.742 109.8C118.168 110.225 118.507 110.729 118.738 111.285C118.969 111.84 119.089 112.436 119.09 113.038L119.132 137.447ZM110.013 117.769C110.013 117.749 110.009 117.729 110.002 117.711C109.994 117.693 109.983 117.676 109.969 117.662C109.955 117.648 109.938 117.637 109.92 117.629C109.902 117.622 109.882 117.618 109.862 117.618H90.0578C90.0379 117.618 90.0183 117.622 90 117.629C89.9816 117.637 89.965 117.648 89.9509 117.662C89.9369 117.676 89.9258 117.693 89.9182 117.711C89.9106 117.729 89.9067 117.749 89.9067 117.769V132.791C89.9067 132.811 89.9106 132.831 89.9182 132.849C89.9258 132.867 89.9369 132.884 89.9509 132.898C89.965 132.912 89.9816 132.923 90 132.931C90.0183 132.938 90.0379 132.942 90.0578 132.942H109.862C109.882 132.942 109.902 132.938 109.92 132.931C109.938 132.923 109.955 132.912 109.969 132.898C109.983 132.884 109.994 132.867 110.002 132.849C110.009 132.831 110.013 132.811 110.013 132.791V117.769Z" fill="#CB8A58"/>
<path d="M164.676 110.942H131.458C131.372 110.942 131.302 111.012 131.302 111.098V179.24C131.302 179.326 131.372 179.396 131.458 179.396H164.676C164.761 179.396 164.831 179.326 164.831 179.24V111.098C164.831 111.012 164.761 110.942 164.676 110.942Z" fill="#CB8A58"/>
<path d="M109.862 117.618H90.0578C89.9743 117.618 89.9067 117.685 89.9067 117.769V132.791C89.9067 132.875 89.9743 132.942 90.0578 132.942H109.862C109.946 132.942 110.013 132.875 110.013 132.791V117.769C110.013 117.685 109.946 117.618 109.862 117.618Z" fill="white"/>
<path d="M71.0133 177.276C71.0133 178.485 70.5329 179.645 69.6777 180.5C68.8226 181.355 67.6627 181.836 66.4533 181.836H37.3067C36.0973 181.836 34.9374 181.355 34.0823 180.5C33.2271 179.645 32.7467 178.485 32.7467 177.276V152.831C32.7467 151.622 33.2271 150.462 34.0823 149.607C34.9374 148.752 36.0973 148.271 37.3067 148.271H66.4533C67.6627 148.271 68.8226 148.752 69.6777 149.607C70.5329 150.462 71.0133 151.622 71.0133 152.831V177.276ZM61.9156 157.533C61.9156 157.496 61.9006 157.459 61.8739 157.433C61.8472 157.406 61.8111 157.391 61.7733 157.391H41.9689C41.9312 157.391 41.895 157.406 41.8683 157.433C41.8417 157.459 41.8267 157.496 41.8267 157.533V172.573C41.8267 172.611 41.8417 172.647 41.8683 172.674C41.895 172.701 41.9312 172.716 41.9689 172.716H61.7733C61.8111 172.716 61.8472 172.701 61.8739 172.674C61.9006 172.647 61.9156 172.611 61.9156 172.573V157.533Z" fill="#CB8A58"/>
<path d="M119.107 177.253C119.107 178.469 118.624 179.634 117.765 180.493C116.905 181.353 115.74 181.836 114.524 181.836H85.3955C84.1803 181.836 83.0148 181.353 82.1554 180.493C81.2961 179.634 80.8133 178.469 80.8133 177.253V152.853C80.8133 151.638 81.2961 150.473 82.1554 149.613C83.0148 148.754 84.1803 148.271 85.3955 148.271H114.524C115.74 148.271 116.905 148.754 117.765 149.613C118.624 150.473 119.107 151.638 119.107 152.853V177.253ZM110.004 157.582C110.004 157.532 109.984 157.483 109.948 157.447C109.913 157.411 109.864 157.391 109.813 157.391H90.0978C90.0471 157.391 89.9985 157.411 89.9626 157.447C89.9268 157.483 89.9067 157.532 89.9067 157.582V172.524C89.9067 172.575 89.9268 172.624 89.9626 172.66C89.9985 172.695 90.0471 172.716 90.0978 172.716H109.813C109.864 172.716 109.913 172.695 109.948 172.66C109.984 172.624 110.004 172.575 110.004 172.524V157.582Z" fill="#CB8A58"/>
</svg>
